<?xml version="1.0" encoding="UTF-8"?>
<!DOCTYPE svg PUBLIC "-//W3C//DTD SVG 1.1//EN" "http://www.w3.org/Graphics/SVG/1.1/DTD/svg11.dtd">
<svg xmlns="http://www.w3.org/2000/svg">

    <symbol id="details" viewBox="0 0 30 30">
        <path fill-rule="evenodd" clip-rule="evenodd" d="M10.2854 8.67715L9.9692 7.115C9.67195 5.45798 8.23629 4.25 6.54765 4.25H3.79649C2.97431 4.25 2.21537 4.8445 2.13315 5.66669C2.03828 6.61536 2.78457 7.41225 3.70795 7.41225H6.54765C6.69943 7.41225 6.83225 7.51976 6.86387 7.7095L9.57708 21.1238C9.8933 22.6859 11.3163 23.7674 12.9101 23.6536L24.6989 22.7808C26.1852 22.6733 27.3995 21.5348 27.6019 20.0549L28.6581 12.2695C28.9174 10.3658 27.4438 8.67715 25.5275 8.67715H10.2854Z" />
        <path fill-rule="evenodd" clip-rule="evenodd" d="M14.1433 28.283C14.1433 29.6807 13.0113 30.8128 11.6135 30.8128C10.2158 30.8128 9.08374 29.6807 9.08374 28.283C9.08374 26.8853 10.2158 25.7532 11.6135 25.7532C13.0113 25.7532 14.1433 26.8853 14.1433 28.283Z" />
        <path fill-rule="evenodd" clip-rule="evenodd" d="M25.5274 28.283C25.5274 29.6807 24.3953 30.8128 22.9976 30.8128C21.5999 30.8128 20.4678 29.6807 20.4678 28.283C20.4678 26.8853 21.5999 25.7532 22.9976 25.7532C24.3953 25.7532 25.5274 26.8853 25.5274 28.283Z" />
    </symbol>
    <symbol id="lootboxes" viewBox="0 0 29 29">
        <path fill-rule="evenodd" clip-rule="evenodd" d="M14.4702 15.9881H7.89286C7.05298 15.9881 6.375 15.3086 6.375 14.4702V8.90476C6.375 7.50783 7.50833 6.375 8.90476 6.375H14.4702C15.3101 6.375 15.9881 7.05449 15.9881 7.89286V14.4702C15.9881 15.3086 15.3101 15.9881 14.4702 15.9881Z"  />
        <path fill-rule="evenodd" clip-rule="evenodd" d="M26.1072 15.9881H19.5298C18.6899 15.9881 18.012 15.3086 18.012 14.4702V7.89286C18.012 7.05449 18.6899 6.375 19.5298 6.375H25.0953C26.4917 6.375 27.6251 7.50783 27.6251 8.90476V14.4702C27.6251 15.3086 26.9471 15.9881 26.1072 15.9881Z"  />
        <path fill-rule="evenodd" clip-rule="evenodd" d="M14.4702 27.6248H8.90476C7.50833 27.6248 6.375 26.492 6.375 25.095V19.5296C6.375 18.6912 7.05298 18.0117 7.89286 18.0117H14.4702C15.3101 18.0117 15.9881 18.6912 15.9881 19.5296V26.107C15.9881 26.9453 15.3101 27.6248 14.4702 27.6248Z"  />
        <path fill-rule="evenodd" clip-rule="evenodd" d="M25.0953 27.6248H19.5298C18.6899 27.6248 18.012 26.9453 18.012 26.107V19.5296C18.012 18.6912 18.6899 18.0117 19.5298 18.0117H26.1072C26.9471 18.0117 27.6251 18.6912 27.6251 19.5296V25.095C27.6251 26.492 26.4917 27.6248 25.0953 27.6248Z"  />
	</symbol>

     <symbol id="market" viewBox="0 0 30 30">
        <path fill-rule="evenodd" clip-rule="evenodd" d="M10.2854 8.67715L9.9692 7.115C9.67195 5.45798 8.23629 4.25 6.54765 4.25H3.79649C2.97431 4.25 2.21537 4.8445 2.13315 5.66669C2.03828 6.61536 2.78457 7.41225 3.70795 7.41225H6.54765C6.69943 7.41225 6.83225 7.51976 6.86387 7.7095L9.57708 21.1238C9.8933 22.6859 11.3163 23.7674 12.9101 23.6536L24.6989 22.7808C26.1852 22.6733 27.3995 21.5348 27.6019 20.0549L28.6581 12.2695C28.9174 10.3658 27.4438 8.67715 25.5275 8.67715H10.2854Z" />
        <path fill-rule="evenodd" clip-rule="evenodd" d="M14.1433 28.283C14.1433 29.6807 13.0113 30.8128 11.6135 30.8128C10.2158 30.8128 9.08374 29.6807 9.08374 28.283C9.08374 26.8853 10.2158 25.7532 11.6135 25.7532C13.0113 25.7532 14.1433 26.8853 14.1433 28.283Z" />
        <path fill-rule="evenodd" clip-rule="evenodd" d="M25.5274 28.283C25.5274 29.6807 24.3953 30.8128 22.9976 30.8128C21.5999 30.8128 20.4678 29.6807 20.4678 28.283C20.4678 26.8853 21.5999 25.7532 22.9976 25.7532C24.3953 25.7532 25.5274 26.8853 25.5274 28.283Z" />
    </symbol>
</svg>

