<svg width="40" height="40" viewBox="0 0 40 40" fill="none" xmlns="http://www.w3.org/2000/svg">
<rect width="40" height="40" rx="6" fill="#EF4129"/>
<path fill-rule="evenodd" clip-rule="evenodd" d="M11.75 28.2498V23.6664C11.8002 22.6668 12.4002 21.7773 13.3083 21.3564C17.5997 19.6325 22.3911 19.6325 26.6825 21.3564C27.5942 21.7747 28.1981 22.6647 28.25 23.6664V28.2498C28.25 29.7685 27.0188 30.9998 25.5 30.9998H14.5C12.9812 30.9998 11.75 29.7685 11.75 28.2498ZM20 9C17.4687 9 15.4167 11.052 15.4167 13.5833C15.4167 16.1146 17.4687 18.1667 20 18.1667C22.5313 18.1667 24.5834 16.1146 24.5834 13.5833C24.5834 11.052 22.5313 9 20 9Z" fill="white"/>
</svg>
