<svg width="40" height="40" viewBox="0 0 40 40" fill="none" xmlns="http://www.w3.org/2000/svg">
<rect width="40" height="40" rx="6" fill="#2984EF"/>
<path fill-rule="evenodd" clip-rule="evenodd" d="M31.0523 24.7495L29.6803 16.527C29.4352 15.0602 28.5983 13.7586 27.3655 12.9269C26.1328 12.0952 24.6124 11.8066 23.1606 12.1286L22.0902 12.3622C20.6995 12.6713 19.2578 12.6713 17.867 12.3622L16.7967 12.1286C15.3449 11.8066 13.8245 12.0952 12.5917 12.9269C11.359 13.7586 10.522 15.0602 10.277 16.527L8.90493 24.7495C8.75325 25.6614 9.01066 26.5938 9.60868 27.2987C10.2067 28.0035 11.0847 28.4094 12.0091 28.4083H12.2037C13.5503 28.4092 14.7478 27.5521 15.1813 26.2773C15.7406 24.6379 17.2831 23.5378 19.0153 23.5429H20.796C22.6848 23.5451 24.3796 24.7033 25.0679 26.4622C25.6563 27.9644 27.2866 28.7772 28.8404 28.3429C30.3943 27.9086 31.367 26.3684 31.0913 24.7787L31.0523 24.7495ZM23.2678 16.0404C23.5456 15.7609 23.9646 15.6766 24.3289 15.8269C24.6933 15.9772 24.931 16.3324 24.931 16.7265C24.931 17.1206 24.6933 17.4758 24.3289 17.626C23.9646 17.7763 23.5456 17.692 23.2678 17.4125C22.901 17.0223 22.9184 16.4092 23.3067 16.0404H23.2678ZM22.5768 19.2421C22.299 19.5216 21.88 19.606 21.5157 19.4557C21.1513 19.3054 20.9136 18.9502 20.9136 18.5561C20.9136 18.162 21.1513 17.8068 21.5157 17.6566C21.88 17.5063 22.299 17.5906 22.5768 17.8701C22.7676 18.0462 22.8801 18.2913 22.8893 18.5508C22.8984 18.8104 22.8034 19.0628 22.6255 19.2519L22.5768 19.2421ZM24.6397 21.3046C24.3618 21.5841 23.9428 21.6685 23.5785 21.5182C23.2142 21.3679 22.9765 21.0127 22.9765 20.6186C22.9765 20.2245 23.2142 19.8693 23.5785 19.7191C23.9428 19.5688 24.3618 19.6531 24.6397 19.9326C24.8305 20.1087 24.943 20.3538 24.9521 20.6133C24.9612 20.8729 24.8663 21.1253 24.6883 21.3144L24.6397 21.3046ZM26.4691 19.2421C26.1913 19.5216 25.7723 19.606 25.408 19.4557C25.0436 19.3054 24.8059 18.9502 24.8059 18.5561C24.8059 18.162 25.0436 17.8068 25.408 17.6566C25.7723 17.5063 26.1913 17.5906 26.4691 17.8701C26.6599 18.0462 26.7724 18.2913 26.7816 18.5508C26.7907 18.8104 26.6957 19.0628 26.5178 19.2519L26.4691 19.2421Z" fill="white"/>
</svg>
