<svg width="40" height="40" viewBox="0 0 40 40" fill="none" xmlns="http://www.w3.org/2000/svg">
<rect width="40" height="40" rx="6" fill="#29EFA8"/>
<path fill-rule="evenodd" clip-rule="evenodd" d="M18.1266 26.8707C16.1365 25.9369 14.224 25.5537 11.8382 25.499C11.202 25.4842 10.6899 24.9725 10.6899 24.3359V14.1643C10.6899 13.5079 11.233 12.9749 11.8887 13.0009C14.5188 13.1049 16.5749 13.5793 18.8055 14.6997C19.0615 14.83 19.2245 15.1004 19.2245 15.3906V26.1662C19.2245 26.7306 18.6387 27.1104 18.1266 26.8707Z" fill="#00301B"/>
<path fill-rule="evenodd" clip-rule="evenodd" d="M21.8742 26.8707C23.8643 25.9369 25.7768 25.5537 28.1626 25.499C28.7988 25.4842 29.3109 24.9725 29.3109 24.3359V14.1643C29.3109 13.5079 28.7678 12.9749 28.1122 13.0009C25.482 13.1049 23.426 13.5793 21.1992 14.6997C20.9393 14.83 20.7764 15.1004 20.7764 15.3906V26.1662C20.7764 26.7306 21.3621 27.1104 21.8742 26.8707Z" fill="#00301B"/>
</svg>
