<svg width="15" height="25" viewBox="0 0 15 25" fill="none" xmlns="http://www.w3.org/2000/svg">
<path fill-rule="evenodd" clip-rule="evenodd" d="M4.31398 24.4898H0.993985C0.637796 24.4876 0.309635 24.2962 0.13247 23.9872C-0.0446962 23.6782 -0.0441189 23.2982 0.133985 22.9898L6.13399 12.7498C6.2233 12.5951 6.2233 12.4045 6.13399 12.2498L0.133985 2.00977C-0.0441189 1.7013 -0.0446962 1.32138 0.13247 1.01237C0.309635 0.703356 0.637796 0.511911 0.993985 0.509768H4.31398C4.90885 0.508802 5.47327 0.772688 5.85398 1.22977L14.724 11.8698C15.0328 12.2405 15.0328 12.779 14.724 13.1498L5.85398 23.7898C5.46945 24.2394 4.90559 24.4957 4.31398 24.4898Z" fill="#25313D"/>
</svg>
