<svg width="22" height="23" viewBox="0 0 22 23" xmlns="http://www.w3.org/2000/svg">
<path fill-rule="evenodd" clip-rule="evenodd" d="M20.513 13.9273L19.779 13.175C19.398 12.8033 19.1971 12.2844 19.2286 11.753C19.2751 11.2465 19.2751 10.7367 19.2286 10.2302C19.1903 9.70672 19.385 9.19308 19.7607 8.82654L20.5038 8.0651C21.0792 7.47609 21.1917 6.57588 20.779 5.86335L20.3295 5.08356C19.9207 4.37718 19.0944 4.02574 18.302 4.2212L17.192 4.49642C16.6759 4.62261 16.1304 4.51887 15.6966 4.21203C15.507 4.07748 15.3082 3.9521 15.1003 3.8359C14.8924 3.71969 14.6936 3.61878 14.504 3.53316C13.9997 3.3102 13.6224 2.87227 13.4765 2.34054L13.2013 1.34975C12.9764 0.529177 12.2168 -0.0290978 11.3665 0.00117333H10.4491C9.64978 0.0160262 8.95209 0.546716 8.72439 1.31305L8.38495 2.45063C8.24541 2.93364 7.91378 3.33822 7.46755 3.56985C7.01434 3.78422 6.5814 4.03907 6.17402 4.33129C5.74495 4.63281 5.20736 4.73632 4.69701 4.61569L3.63283 4.35881C2.82752 4.17311 1.99746 4.54871 1.60538 5.27621L1.14668 6.0927C0.741043 6.80503 0.857127 7.70001 1.43107 8.28528L2.16499 9.03755C2.54606 9.40924 2.74691 9.92812 2.71543 10.4595C2.66893 10.9661 2.66893 11.4758 2.71543 11.9824C2.7537 12.5058 2.55898 13.0195 2.18334 13.386L1.44024 14.1475C0.864843 14.7365 0.752317 15.6367 1.16502 16.3492L1.61455 17.129C2.02336 17.8354 2.8496 18.1868 3.642 17.9914L4.75205 17.7161C5.26817 17.5899 5.81365 17.6937 6.24741 18.0005C6.43701 18.1351 6.63578 18.2605 6.84372 18.3767C7.05166 18.4929 7.25043 18.5938 7.44003 18.6794C7.94432 18.9024 8.32162 19.3403 8.46751 19.872L8.74273 20.8628C8.96767 21.6834 9.72723 22.2417 10.5775 22.2114H11.4949C12.2942 22.1965 12.9919 21.6658 13.2196 20.8995L13.5591 19.7619C13.6986 19.2789 14.0302 18.8743 14.4765 18.6427C14.9297 18.4283 15.3626 18.1735 15.77 17.8813C16.1991 17.5797 16.7367 17.4762 17.247 17.5969L18.3112 17.8537C19.1165 18.0394 19.9466 17.6639 20.3386 16.9363L20.7973 16.1199C21.203 15.4075 21.0869 14.5126 20.513 13.9273ZM10.9904 14.7713C8.96369 14.7713 7.32076 13.1283 7.32076 11.1017C7.32076 9.07503 8.96369 7.43209 10.9904 7.43209C13.017 7.43209 14.6599 9.07503 14.6599 11.1017C14.6599 13.1283 13.017 14.7713 10.9904 14.7713Z"/>
</svg>
