<svg width="18" height="15" viewBox="0 0 18 15" fill="none" xmlns="http://www.w3.org/2000/svg">
<path d="M17.0161 11.7929H1.2241C0.888098 11.7929 0.600098 12.0089 0.600098 12.3449V13.9769C0.600098 14.3129 0.888098 14.6729 1.2241 14.6729H16.9921C17.3281 14.6729 17.6161 14.2889 17.6161 13.9529V12.4169C17.6401 12.0569 17.3521 11.7929 17.0161 11.7929Z" />
<path d="M17.0161 6.03289H1.2241C0.888098 6.03289 0.600098 6.24889 0.600098 6.58489V8.21689C0.600098 8.55289 0.888098 8.91289 1.2241 8.91289H16.9921C17.3281 8.91289 17.6161 8.52889 17.6161 8.19289V6.65689C17.6401 6.29689 17.3521 6.03289 17.0161 6.03289Z" />
<path d="M17.0161 0.272888H1.2241C0.888098 0.272888 0.600098 0.488888 0.600098 0.824888V2.45689C0.600098 2.79289 0.888098 3.15289 1.2241 3.15289H16.9921C17.3281 3.15289 17.6161 2.76889 17.6161 2.43289V0.896888C17.6401 0.536888 17.3521 0.272888 17.0161 0.272888Z" />
</svg>
