<svg width="14" height="14" viewBox="0 0 14 14" fill="none" xmlns="http://www.w3.org/2000/svg">
<path fill-rule="evenodd" clip-rule="evenodd" d="M12.3327 12C12.3327 12.1833 12.1827 12.3333 11.9993 12.3333H1.99935C1.81602 12.3333 1.66602 12.1833 1.66602 12V5.33333C1.66602 5.15 1.81602 5 1.99935 5H11.9993C12.1827 5 12.3327 5.15 12.3327 5.33333V12ZM12.3333 1.66667H11.6667V1C11.6667 0.446667 11.22 0 10.6667 0C10.1133 0 9.66667 0.446667 9.66667 1V1.66667H4.33333V1C4.33333 0.446667 3.88667 0 3.33333 0C2.78 0 2.33333 0.446667 2.33333 1V1.66667H1.66667C0.746667 1.66667 0 2.41333 0 3.33333V12.3333C0 13.2533 0.746667 14 1.66667 14H12.3333C13.2533 14 14 13.2533 14 12.3333V3.33333C14 2.41333 13.2533 1.66667 12.3333 1.66667Z" fill="#283542"/>
</svg>
