<svg width="58" height="57" viewBox="0 0 58 57"  xmlns="http://www.w3.org/2000/svg">
<path d="M37.4 28.6071L56.4 9.60706C57.4 8.60706 57.6 7.20706 56.6 6.20706L51.8 1.40706C50.8 0.407059 48.9 0.207061 47.9 1.20706L28.9 20.2071L9.89998 1.20706C8.89998 0.207061 7.49998 0.00705981 6.49998 1.00706L1.69998 5.80706C0.69998 6.80706 0.49998 8.70706 1.49998 9.70706L20.5 28.7071L1.49998 47.7071C0.49998 48.7071 0.799979 50.7071 1.79998 51.7071L6.29998 56.2071C7.29998 57.2071 8.89998 57.2071 9.89998 56.2071L28.9 37.2071L47.9 56.2071C48.9 57.2071 50.9 56.9071 51.9 55.9071L56.4 51.4071C57.4 50.4071 57.4 48.8071 56.4 47.8071L37.4 28.6071Z" />
</svg>
