<svg width="12" height="8" viewBox="0 0 12 8" fill="none" xmlns="http://www.w3.org/2000/svg">
<path fill-rule="evenodd" clip-rule="evenodd" d="M10.7433 0.571411C10.4135 0.568736 10.0949 0.691263 9.85192 0.914268L5.99992 4.55884L2.14792 0.918554C1.9056 0.695254 1.58815 0.571289 1.25863 0.571289C0.929119 0.571289 0.611664 0.695254 0.369348 0.918554C0.252819 1.02535 0.159773 1.15521 0.0961189 1.2999C0.0324649 1.44458 -0.000405357 1.60092 -0.000405364 1.75898C-0.00040537 1.91705 0.0324649 2.07339 0.0961189 2.21807C0.159773 2.36275 0.252819 2.49261 0.369347 2.59941L5.11106 7.0797C5.3524 7.30394 5.66963 7.42857 5.99906 7.42857C6.32849 7.42857 6.64573 7.30394 6.88706 7.0797L11.6305 2.59941C11.747 2.49261 11.8401 2.36275 11.9037 2.21807C11.9674 2.07339 12.0002 1.91705 12.0002 1.75898C12.0002 1.60092 11.9674 1.44458 11.9037 1.2999C11.8401 1.15522 11.747 1.02535 11.6305 0.918554C11.3897 0.694262 11.0724 0.570131 10.7433 0.571411Z" fill="#616D7A"/>
</svg>
