<svg width="40" height="40" viewBox="0 0 40 40" xmlns="http://www.w3.org/2000/svg">
<g clip-path="url(#clip0_17_767)">
<path fill-rule="evenodd" clip-rule="evenodd" d="M20.8977 26.1921C20.8977 26.1921 21.3019 26.1431 21.5101 25.9348C21.6938 25.7266 21.6816 25.3591 21.6816 25.3591C21.6816 25.3591 21.6571 23.6076 22.49 23.3381C23.3107 23.0931 24.3518 25.0407 25.4665 25.7878C26.3116 26.3513 26.9486 26.2288 26.9486 26.2288L29.925 26.1921C29.925 26.1921 31.4806 26.0941 30.7457 24.8937C30.6845 24.7957 30.317 24.0118 28.5409 22.3827C26.6669 20.6801 26.9118 20.9618 29.1534 18.0221C30.5252 16.2338 31.0764 15.1314 30.9049 14.6659C30.7457 14.225 29.7413 14.3475 29.7413 14.3475H26.3729C26.3729 14.3475 26.1279 14.3107 25.9442 14.421C25.7604 14.5312 25.6502 14.7884 25.6502 14.7884C25.6502 14.7884 25.1235 16.1603 24.4131 17.3362C22.9187 19.8227 22.3308 19.9574 22.0858 19.7982C21.5101 19.443 21.6571 18.3528 21.6571 17.5934C21.6571 15.1804 22.0246 14.1637 20.9222 13.9188C20.5547 13.833 20.2975 13.7718 19.3666 13.7595C18.1662 13.7595 17.1618 13.7595 16.5861 14.0412C16.2064 14.225 15.9124 14.6292 16.0961 14.6537C16.3166 14.6782 16.8188 14.7762 17.076 15.1436C17.419 15.5968 17.4068 16.6257 17.4068 16.6257C17.4068 16.6257 17.6027 19.4675 16.9536 19.8104C16.5004 20.0554 15.8757 19.5655 14.5528 17.3117C13.8669 16.1603 13.3524 14.8742 13.3524 14.8742C13.3524 14.8742 13.2544 14.6292 13.0829 14.5067C12.8625 14.3597 12.5685 14.3107 12.5685 14.3107L9.3838 14.3352C9.3838 14.3352 8.89385 14.3352 8.73461 14.5434C8.57538 14.7272 8.72237 15.1069 8.72237 15.1069C8.72237 15.1069 11.2211 20.8393 14.0383 23.7178C16.6351 26.3635 19.5626 26.1921 19.5626 26.1921H20.8977Z"/>
<g clip-path="url(#clip1_17_767)">
<path fill-rule="evenodd" clip-rule="evenodd" d="M19.8226 25.0928C19.8226 25.0928 20.1931 25.0479 20.384 24.857C20.5524 24.6661 20.5412 24.3293 20.5412 24.3293C20.5412 24.3293 20.5188 22.7237 21.2823 22.4766C22.0345 22.2521 22.9889 24.0373 24.0107 24.7223C24.7854 25.2387 25.3693 25.1265 25.3693 25.1265L28.0977 25.0928C28.0977 25.0928 29.5237 25.003 28.85 23.9026C28.7938 23.8128 28.457 23.0942 26.8289 21.6008C25.111 20.0401 25.3356 20.2984 27.3903 17.6037C28.6479 15.9644 29.1531 14.9538 28.9959 14.5272C28.85 14.123 27.9293 14.2352 27.9293 14.2352H24.8416C24.8416 14.2352 24.617 14.2016 24.4486 14.3026C24.2802 14.4037 24.1791 14.6394 24.1791 14.6394C24.1791 14.6394 23.6963 15.897 23.0451 16.9749C21.6752 19.2542 21.1363 19.3777 20.9117 19.2317C20.384 18.9061 20.5188 17.9068 20.5188 17.2107C20.5188 14.9987 20.8556 14.0668 19.8451 13.8423C19.5082 13.7637 19.2724 13.7075 18.4191 13.6963C17.3188 13.6963 16.3981 13.6963 15.8703 13.9545C15.5223 14.123 15.2528 14.4935 15.4212 14.5159C15.6233 14.5384 16.0837 14.6282 16.3195 14.9651C16.6338 15.3805 16.6226 16.3237 16.6226 16.3237C16.6226 16.3237 16.8023 18.9286 16.2072 19.243C15.7917 19.4675 15.2191 19.0184 14.0065 16.9524C13.3777 15.897 12.9061 14.718 12.9061 14.718C12.9061 14.718 12.8163 14.4935 12.6591 14.3812C12.457 14.2465 12.1875 14.2016 12.1875 14.2016L9.26823 14.224C9.26823 14.224 8.81911 14.224 8.67314 14.4149C8.52718 14.5833 8.66191 14.9314 8.66191 14.9314C8.66191 14.9314 10.9524 20.1861 13.5349 22.8247C15.9152 25.25 18.5988 25.0928 18.5988 25.0928H19.8226Z"/>
</g>
</g>
<defs>
<clipPath id="clip0_17_767">
<rect width="23.2727" height="13.4737" transform="translate(8 13)"/>
</clipPath>
<clipPath id="clip1_17_767">
<rect width="21.3333" height="12.3509"  transform="translate(8 13)"/>
</clipPath>
</defs>
</svg>
