<svg width="40" height="40" viewBox="0 0 40 40" xmlns="http://www.w3.org/2000/svg">
<g clip-path="url(#clip0_17_751)">
<path fill-rule="evenodd" clip-rule="evenodd" d="M30.5325 13.1563C30.8674 13.4912 31.1087 13.9079 31.2324 14.3651C31.9447 17.2322 31.7801 21.7604 31.2462 24.7381C31.1225 25.1953 30.8812 25.612 30.5464 25.9469C30.2115 26.2818 29.7947 26.5231 29.3376 26.6468C27.6641 27.1032 20.9285 27.1032 20.9285 27.1032C20.9285 27.1032 14.1929 27.1032 12.5194 26.6468C12.0623 26.5231 11.6455 26.2818 11.3106 25.9469C10.9758 25.612 10.7345 25.1953 10.6108 24.7381C9.89432 21.8835 10.0907 17.3525 10.5969 14.3789C10.7206 13.9217 10.9619 13.505 11.2968 13.1701C11.6317 12.8352 12.0484 12.5939 12.5056 12.4702C14.1791 12.0138 20.9147 12 20.9147 12C20.9147 12 27.6502 12 29.3238 12.4564C29.7809 12.5801 30.1977 12.8214 30.5325 13.1563ZM24.3588 19.5517L18.7712 22.7881V16.3153L24.3588 19.5517Z"/>
</g>
<defs>
<clipPath id="clip0_17_751">
<rect width="22.8571" height="16" transform="translate(9 12)"/>
</clipPath>
</defs>
</svg>
