<svg width="40" height="40" viewBox="0 0 40 40" xmlns="http://www.w3.org/2000/svg">
<path fill-rule="evenodd" clip-rule="evenodd" d="M20 12.62C22.4075 12.62 22.6887 12.6313 23.6337 12.6762C24.5112 12.71 24.9838 12.8563 25.31 12.98C25.7263 13.1488 26.03 13.34 26.345 13.655C26.66 13.97 26.8512 14.2738 27.02 14.69C27.1325 15.005 27.29 15.4775 27.3237 16.3663C27.3687 17.3112 27.38 17.6037 27.38 20C27.38 22.4075 27.3687 22.6887 27.3237 23.6337C27.29 24.5112 27.1437 24.9838 27.02 25.31C26.8512 25.7263 26.66 26.03 26.345 26.345C26.03 26.66 25.7263 26.8512 25.31 27.02C24.995 27.1325 24.5225 27.29 23.6337 27.3237C22.6887 27.3687 22.3962 27.38 20 27.38C17.5925 27.38 17.3112 27.3687 16.3663 27.3237C15.7942 27.3195 15.2272 27.2167 14.69 27.02C14.2989 26.8752 13.9452 26.6445 13.655 26.345C13.3555 26.0548 13.1248 25.7011 12.98 25.31C12.8675 24.995 12.71 24.5225 12.6762 23.6337C12.6313 22.6887 12.62 22.3962 12.62 20C12.62 17.5925 12.6313 17.3112 12.6762 16.3663C12.71 15.4887 12.8563 15.0163 12.98 14.69C13.1488 14.2738 13.34 13.97 13.655 13.655C13.97 13.34 14.2738 13.1488 14.69 12.98C15.005 12.8675 15.4775 12.71 16.3663 12.6762C17.3112 12.6313 17.6037 12.62 20 12.62ZM20 11C17.5588 11 17.2437 11 16.2875 11.0563C15.3312 11.1013 14.6788 11.2475 14.105 11.4725C13.5087 11.6975 13.0138 12.0125 12.5075 12.5075C12.0125 13.0138 11.6975 13.52 11.4725 14.105C11.2475 14.6675 11.1013 15.3312 11.0563 16.2875C11 17.2437 11 17.5588 11 20C11 22.4412 11 22.7563 11.0563 23.7125C11.1013 24.6687 11.2475 25.3212 11.4725 25.895C11.6975 26.4913 12.0125 26.9862 12.5075 27.4925C13.0138 27.9875 13.52 28.3025 14.105 28.5275C14.6675 28.7525 15.3312 28.8988 16.2875 28.9438C17.2437 28.9888 17.5588 29 20 29C22.4412 29 22.7563 29 23.7125 28.9438C24.4583 28.9293 25.1962 28.7885 25.895 28.5275C26.4913 28.3025 26.9862 27.9875 27.4925 27.4925C27.9875 26.9862 28.3025 26.48 28.5275 25.895C28.7525 25.3325 28.8988 24.6687 28.9438 23.7125C28.9888 22.7563 29 22.4412 29 20C29 17.5588 29 17.2437 28.9438 16.2875C28.9293 15.5417 28.7885 14.8038 28.5275 14.105C28.3025 13.5087 27.9875 13.0138 27.4925 12.5075C26.9862 12.0125 26.48 11.6975 25.895 11.4725C25.3325 11.2475 24.6687 11.1013 23.7125 11.0563C22.7563 11 22.4412 11 20 11ZM20.0225 15.3875C18.7947 15.3875 17.6172 15.8752 16.749 16.7434C15.8809 17.6116 15.3931 18.7891 15.3931 20.0169C15.3931 21.2447 15.8809 22.4222 16.749 23.2903C17.6172 24.1585 18.7947 24.6462 20.0225 24.6462C21.2503 24.6462 22.4278 24.1585 23.296 23.2903C24.1641 22.4222 24.6519 21.2447 24.6519 20.0169C24.6519 18.7891 24.1641 17.6116 23.296 16.7434C22.4278 15.8752 21.2503 15.3875 20.0225 15.3875ZM20.0225 23.015C19.6133 23.0401 19.2034 22.9811 18.8178 22.8418C18.4323 22.7025 18.0794 22.4857 17.7808 22.2048C17.4822 21.924 17.2442 21.585 17.0816 21.2087C16.9189 20.8324 16.835 20.4268 16.835 20.0169C16.835 19.6069 16.9189 19.2013 17.0816 18.8251C17.2442 18.4488 17.4822 18.1098 17.7808 17.8289C18.0794 17.548 18.4323 17.3313 18.8178 17.1919C19.2034 17.0526 19.6133 16.9937 20.0225 17.0187C20.7859 17.0655 21.5027 17.4018 22.0267 17.9589C22.5507 18.516 22.8425 19.252 22.8425 20.0169C22.8425 20.7817 22.5507 21.5177 22.0267 22.0749C21.5027 22.632 20.7859 22.9682 20.0225 23.015ZM25.8612 15.1737C25.8612 15.4572 25.7486 15.729 25.5482 15.9295C25.3478 16.1299 25.076 16.2425 24.7925 16.2425C24.5091 16.2425 24.2372 16.1299 24.0368 15.9295C23.8363 15.729 23.7238 15.4572 23.7238 15.1737C23.7238 14.8903 23.8363 14.6185 24.0368 14.418C24.2372 14.2176 24.5091 14.105 24.7925 14.105C25.076 14.105 25.3478 14.2176 25.5482 14.418C25.7486 14.6185 25.8612 14.8903 25.8612 15.1737Z"/>
</svg>
