<svg width="24" height="17" viewBox="0 0 24 17" fill="none" xmlns="http://www.w3.org/2000/svg">
<path fill-rule="evenodd" clip-rule="evenodd" d="M23.0522 12.7495L21.6802 4.52697C21.4351 3.06022 20.5982 1.75857 19.3654 0.926902C18.1326 0.0952358 16.6123 -0.19339 15.1605 0.128627L14.0901 0.362167C12.6994 0.671328 11.2577 0.671328 9.86692 0.362167L8.79653 0.128627C7.34473 -0.19339 5.82439 0.0952358 4.59161 0.926902C3.35883 1.75857 2.5219 3.06022 2.27686 4.52697L0.904808 12.7495C0.753129 13.6614 1.01054 14.5938 1.60856 15.2987C2.20658 16.0035 3.08457 16.4094 4.00895 16.4083H4.20357C5.55014 16.4092 6.74764 15.5521 7.18121 14.2773C7.7405 12.6379 9.28301 11.5378 11.0152 11.5429H12.7959C14.6846 11.5451 16.3795 12.7033 17.0678 14.4622C17.6562 15.9644 19.2865 16.7772 20.8403 16.3429C22.3942 15.9086 23.3669 14.3684 23.0911 12.7787L23.0522 12.7495ZM15.2677 4.04044C15.5455 3.76094 15.9645 3.67662 16.3288 3.8269C16.6931 3.97717 16.9309 4.33236 16.9309 4.72646C16.9309 5.12057 16.6931 5.47576 16.3288 5.62603C15.9645 5.77631 15.5455 5.69199 15.2677 5.41249C14.9009 5.02233 14.9183 4.40918 15.3066 4.04044H15.2677ZM14.5767 7.24215C14.2989 7.52165 13.8799 7.60596 13.5156 7.45569C13.1512 7.30541 12.9135 6.95023 12.9135 6.55612C12.9135 6.16202 13.1512 5.80683 13.5156 5.65656C13.8799 5.50628 14.2989 5.5906 14.5767 5.8701C14.7675 6.04624 14.88 6.29133 14.8891 6.55084C14.8983 6.81035 14.8033 7.06275 14.6254 7.25188L14.5767 7.24215ZM16.6396 9.30465C16.3617 9.58415 15.9427 9.66846 15.5784 9.51819C15.2141 9.36791 14.9763 9.01272 14.9763 8.61862C14.9763 8.22452 15.2141 7.86933 15.5784 7.71906C15.9427 7.56878 16.3617 7.6531 16.6396 7.9326C16.8304 8.10874 16.9428 8.35383 16.952 8.61334C16.9611 8.87285 16.8661 9.12525 16.6882 9.31438L16.6396 9.30465ZM18.469 7.24215C18.1912 7.52165 17.7722 7.60596 17.4079 7.45569C17.0435 7.30541 16.8058 6.95023 16.8058 6.55612C16.8058 6.16202 17.0435 5.80683 17.4079 5.65656C17.7722 5.50628 18.1912 5.5906 18.469 5.8701C18.6598 6.04624 18.7723 6.29133 18.7814 6.55084C18.7906 6.81035 18.6956 7.06275 18.5177 7.25188L18.469 7.24215Z" fill="#616D7A"/>
</svg>
