<svg width="16" height="16" viewBox="0 0 16 16" fill="none" xmlns="http://www.w3.org/2000/svg">
<path fill-rule="evenodd" clip-rule="evenodd" d="M8 16C12.418 16 16 12.418 16 8C16 3.58197 12.419 0 8 0C3.58197 0 0 3.58197 0 8C0 12.418 3.58197 16 8 16ZM13.2231 9.3891V8.87376C13.2231 8.82608 13.1771 8.79157 13.1319 8.80472L10.6982 9.50829C10.685 9.51157 10.6735 9.51896 10.6644 9.52883C10.4038 9.81676 10.1823 10.01 10.1236 10.0612L10.1195 10.0647C9.96829 10.1929 9.78088 10.2628 9.58362 10.2628H8.70251V9.36445H9.4028C9.42088 9.36445 9.43814 9.35787 9.4513 9.34637L9.5417 9.26334C9.58034 9.228 9.62637 9.18526 9.68142 9.13019L9.69566 9.11599C9.72457 9.08718 9.75553 9.05634 9.78581 9.02253C9.82198 8.98718 9.85733 8.94773 9.89019 8.9091C9.94526 8.84992 9.99787 8.78827 10.0529 8.72334C10.0924 8.68061 10.1286 8.63211 10.1639 8.58362C10.2034 8.53758 10.242 8.48581 10.2781 8.4365C10.2916 8.41671 10.3059 8.39672 10.3206 8.37629L10.3208 8.37602C10.3347 8.35663 10.3488 8.33685 10.3628 8.3165C10.3891 8.27704 10.4154 8.23512 10.4376 8.19566C10.5066 8.08882 10.565 7.97456 10.6143 7.86032C10.637 7.81139 10.6551 7.75987 10.6726 7.70978L10.6792 7.69101C10.699 7.63264 10.7154 7.57758 10.7277 7.51922C10.7573 7.38195 10.7639 7.24552 10.7508 7.10907C10.7475 7.06634 10.7442 7.02442 10.7343 6.98498V6.9784C10.731 6.95045 10.7244 6.91922 10.7154 6.89045C10.6858 6.7573 10.6398 6.62414 10.5814 6.49346C10.5617 6.44496 10.5387 6.39565 10.5165 6.35045C10.4639 6.25264 10.4088 6.15482 10.3464 6.0603C10.3338 6.04034 10.32 6.02012 10.3062 5.99993C10.2955 5.98437 10.2849 5.96884 10.2749 5.95346C10.2353 5.89244 10.1908 5.83362 10.1477 5.77654C10.1379 5.76365 10.1282 5.75084 10.1187 5.73811C10.0932 5.70466 10.0653 5.67122 10.0373 5.63755C10.0219 5.6191 10.0064 5.60056 9.9913 5.58194C9.94856 5.53016 9.90664 5.48085 9.8639 5.43235C9.71102 5.25974 9.55075 5.10358 9.40773 4.97043C9.38142 4.94413 9.35266 4.91782 9.32307 4.89235C9.21211 4.79125 9.11101 4.7033 9.02635 4.63509C9.00093 4.61553 8.97813 4.59627 8.95691 4.57833C8.94246 4.56613 8.9287 4.5545 8.91539 4.54386C8.88985 4.52482 8.86768 4.50793 8.84904 4.49373L8.84878 4.49353C8.83693 4.48451 8.82652 4.47657 8.81758 4.46987C8.81101 4.46494 8.80362 4.46166 8.79622 4.45918L8.70251 4.4329V3.65699C8.70251 3.53042 8.65155 3.41699 8.57019 3.33397C8.48882 3.25096 8.37539 3.2 8.25046 3.2C8.00059 3.2 7.7984 3.40466 7.7984 3.65699V4.17973L7.75155 4.16659L7.62414 4.13042L7.50826 4.09837C7.50792 4.09837 7.50758 4.09823 7.50718 4.09806C7.50661 4.09782 7.50593 4.09754 7.50498 4.09754H7.50251L6.62304 3.85918C6.58442 3.8485 6.55154 3.89042 6.57126 3.92576L6.71181 4.18549C6.71979 4.20545 6.7299 4.22541 6.74029 4.24592C6.747 4.25918 6.75386 4.27273 6.7603 4.28659C6.78333 4.33261 6.80634 4.3811 6.82853 4.4296C6.84826 4.47234 6.86798 4.51426 6.89099 4.56029C6.90066 4.58192 6.91053 4.60382 6.92053 4.62603C6.95726 4.70761 6.9959 4.7934 7.034 4.88578C7.06688 4.96386 7.09976 5.04194 7.12853 5.12331C7.20744 5.32797 7.28222 5.54659 7.34717 5.77099C7.36333 5.82121 7.37624 5.86981 7.38934 5.91907C7.39488 5.93994 7.40046 5.96094 7.40634 5.98222L7.41538 6.02166C7.44168 6.12606 7.4647 6.22962 7.48114 6.334C7.49429 6.4055 7.50661 6.47373 7.51318 6.54277C7.52306 6.62085 7.53291 6.69894 7.53621 6.77702C7.54278 6.84853 7.54606 6.92333 7.54606 6.99483C7.54606 7.1773 7.52963 7.35318 7.49099 7.51922C7.48857 7.52814 7.48615 7.53717 7.48371 7.54627C7.4729 7.58668 7.46168 7.62856 7.44826 7.66882C7.43612 7.71191 7.42039 7.75501 7.40405 7.79976C7.39827 7.8156 7.39241 7.83165 7.38661 7.84798L7.38337 7.85671C7.37128 7.88927 7.35897 7.92241 7.34387 7.95485C7.2625 8.15046 7.16141 8.34526 7.05702 8.52773C6.90414 8.79814 6.75045 9.03568 6.64277 9.18856C6.63618 9.19844 6.62976 9.20784 6.62357 9.21688C6.61586 9.22815 6.60851 9.23889 6.60168 9.24938C6.56798 9.29704 6.6025 9.36445 6.66085 9.36445H7.7984V10.2628H6.6477C6.33866 10.2628 6.05262 10.0877 5.91454 9.80746C5.84304 9.66691 5.81509 9.51238 5.83154 9.36115C5.83563 9.31595 5.80194 9.27322 5.75592 9.27322H3.4315C3.39205 9.27322 3.36 9.30526 3.36 9.34472V9.39238C3.36 10.8752 4.55755 12.0768 6.03536 12.0768H10.205C10.9866 12.0768 11.4304 11.3646 11.8666 10.6645C11.9882 10.4694 12.1092 10.2751 12.2368 10.0976C12.4661 9.77869 13.0176 9.52554 13.1787 9.4565C13.205 9.44499 13.2231 9.41869 13.2231 9.3891ZM3.98138 8.21456L3.94686 8.26882C3.91645 8.31566 3.95014 8.37813 4.00768 8.37813H6.14797C6.17181 8.37813 6.194 8.36662 6.20715 8.3469C6.2351 8.30416 6.26141 8.25978 6.28523 8.21456C6.47018 7.90387 6.63456 7.56771 6.69456 7.31949C6.8351 6.71619 6.5351 5.74714 6.18742 4.96795C6.16442 4.91618 6.09291 4.91125 6.0625 4.95891L3.98138 8.21456Z" fill="#AFC0D1"/>
</svg>
