<svg width="381" height="382" viewBox="0 0 381 382" fill="none" xmlns="http://www.w3.org/2000/svg">
<path opacity="0.1" d="M183.472 15.3564L169.728 4.00004H138.648L126.991 15.6567L183.472 15.3564Z" fill="white"/>
<path opacity="0.1" d="M116.885 15.3564L126.544 4.00004H95.4645L83.8079 15.6567L116.885 15.3564Z" fill="white"/>
<path opacity="0.1" d="M73.6947 15.3564L83.3609 4.00004H52.2811L40.6245 15.6567L73.6947 15.3564Z" fill="white"/>
<path opacity="0.1" d="M133.372 357.644L147.116 369H178.203L189.853 357.343L133.372 357.644Z" fill="white"/>
<path opacity="0.25" d="M333.477 8.16089H221.499L216.33 15.1801H40.9979L38.2881 17.8829V45.5544L28.7266 50.7227V303.741L37.5897 308.909V348.768L40.2995 351.471H102.187L109.75 358.12H315.004L320.172 351.471H371.702L374.405 348.768V323.66L380.313 318.492V84.0024L374.446 78.8341V17.8899L371.743 15.187H338.645L333.477 8.16089ZM221.701 8.56592H333.268L338.436 15.5851H371.569L374.034 18.0505V78.9948L379.901 84.1631V318.296L373.993 323.464V348.587L371.527 351.052H319.97L314.801 357.701H109.904L102.34 351.052H40.4741L38.0086 348.587V308.665L29.1457 303.497V50.9532L38.707 45.7849V18.0505L41.1725 15.5851H216.533L221.701 8.56592Z" fill="white"/>
<path opacity="0.1" d="M196.111 10.7282H211.05C211.323 10.7282 211.588 10.6025 211.756 10.386L218.062 2.36112H312.063C312.559 2.36112 312.957 1.963 312.957 1.46712C312.957 0.971241 312.559 0.57312 312.063 0.57312H217.629C217.357 0.57312 217.092 0.698829 216.924 0.91534L210.617 8.94028H196.111C195.615 8.94028 195.217 9.33832 195.217 9.8342C195.217 10.3301 195.615 10.7282 196.111 10.7282Z" fill="white"/>
<path opacity="0.1" d="M37.6247 207.065C37.1288 207.065 36.7307 207.463 36.7307 207.959V244.416C36.7307 244.724 36.8843 245.003 37.1427 245.171L45.0978 250.283V265.935C45.0978 266.431 45.4959 266.829 45.9918 266.829C46.4877 266.829 46.8856 266.431 46.8856 265.935V249.794C46.8856 249.487 46.7321 249.208 46.4737 249.04L38.5185 243.928V207.959C38.5185 207.47 38.1206 207.065 37.6247 207.065Z" fill="white"/>
<path opacity="0.1" d="M197.996 341.365H148.987C148.736 341.365 148.492 341.47 148.324 341.658L142.611 347.937H128.063C127.567 347.937 127.169 348.335 127.169 348.831C127.169 349.327 127.567 349.725 128.063 349.725H143.002C143.253 349.725 143.498 349.62 143.665 349.432L149.379 343.153H197.996C198.491 343.153 198.89 342.755 198.89 342.259C198.89 341.763 198.491 341.365 197.996 341.365Z" fill="white"/>
<g opacity="0.1">
<path d="M193.741 358.825V358.309L193.7 358.029H193.616V357.512V356.996H206.844L210.364 353.587H226.05L229.277 356.709H245.446L248.47 353.776H285.724L290.99 358.825H193.741Z" fill="white"/>
<path d="M244.733 355.557H230.045L226.428 352.051H209.54L211.041 350.151H254.763L257.193 352.505H247.876L244.733 355.557Z" fill="white"/>
</g>
<g opacity="0.1">
<path d="M368.23 62.093L369.585 63.4479V74.7064L374.258 79.3789L374.314 20.3413L371.373 23.2816V39.8203L368.23 42.9632V62.093Z" fill="white"/>
<path d="M370.731 34.659L368.461 36.9289L368.391 40.5956L370.731 38.2559V34.659Z" fill="white"/>
<path d="M370.731 29.5117L368.461 31.7815L368.391 35.4482L370.731 33.1085V29.5117Z" fill="white"/>
<path d="M370.731 24.3643L368.461 26.6342L368.391 30.3009L370.731 27.9612V24.3643Z" fill="white"/>
</g>
<g opacity="0.1">
<g filter="url(#filter0_d_105_10732)">
<path d="M32.4631 332.671L33.825 334.033V345.284L38.4976 349.957L38.5464 307.584L35.613 310.524V310.405L32.4631 313.548V332.671Z" fill="white"/>
</g>
</g>
<defs>
<filter id="filter0_d_105_10732" x="0.463135" y="275.583" width="70.0833" height="106.373" filterUnits="userSpaceOnUse" color-interpolation-filters="sRGB">
<feFlood flood-opacity="0" result="BackgroundImageFix"/>
<feColorMatrix in="SourceAlpha" type="matrix" values="0 0 0 0 0 0 0 0 0 0 0 0 0 0 0 0 0 0 127 0" result="hardAlpha"/>
<feOffset/>
<feGaussianBlur stdDeviation="16"/>
<feComposite in2="hardAlpha" operator="out"/>
<feColorMatrix type="matrix" values="0 0 0 0 0.963333 0 0 0 0 0.541667 0 0 0 0 1 0 0 0 1 0"/>
<feBlend mode="normal" in2="BackgroundImageFix" result="effect1_dropShadow_105_10732"/>
<feBlend mode="normal" in="SourceGraphic" in2="effect1_dropShadow_105_10732" result="shape"/>
</filter>
</defs>
</svg>
