<svg width="16" height="16" viewBox="0 0 16 16" fill="none" xmlns="http://www.w3.org/2000/svg">
<path fill-rule="evenodd" clip-rule="evenodd" d="M8 5.33333C7.63333 5.33333 7.33333 5.03333 7.33333 4.66667C7.33333 4.3 7.63333 4 8 4C8.36667 4 8.66667 4.3 8.66667 4.66667C8.66667 5.03333 8.36667 5.33333 8 5.33333ZM8.66667 11.3333C8.66667 11.7 8.36667 12 8 12C7.63333 12 7.33333 11.7 7.33333 11.3333V7C7.33333 6.63333 7.63333 6.33333 8 6.33333C8.36667 6.33333 8.66667 6.63333 8.66667 7V11.3333ZM8 0C3.58333 0 0 3.58333 0 8C0 12.4167 3.58333 16 8 16C12.4167 16 16 12.4167 16 8C16 3.58333 12.4167 0 8 0Z" fill="#AFC0D1"/>
</svg>
