<svg width="16" height="19" viewBox="0 0 16 19" fill="none" xmlns="http://www.w3.org/2000/svg">
<path fill-rule="evenodd" clip-rule="evenodd" d="M8.14554 13.3776C7.30084 13.3776 6.61667 12.6935 6.61667 11.8488C6.61667 11.0041 7.30084 10.3199 8.14554 10.3199C8.99024 10.3199 9.67441 11.0041 9.67441 11.8488C9.67441 12.6935 8.99024 13.3776 8.14554 13.3776ZM15.6446 6.75762L8.94052 0.321063C8.49715 -0.107021 7.79387 -0.107021 7.35049 0.321063L0.646385 6.75762C-0.0989403 7.47237 0.405588 8.72987 1.4414 8.72987H2.03002V16.4354C2.03002 17.4903 2.88618 18.3465 3.94111 18.3465H12.3499C13.4048 18.3465 14.261 17.4903 14.261 16.4354V8.72987H14.8496C15.8854 8.72987 16.39 7.47237 15.6446 6.75762Z" fill="#AFC0D1"/>
</svg>
