<svg width="20" height="14" viewBox="0 0 20 14" fill="none" xmlns="http://www.w3.org/2000/svg">
<path d="M17.3811 1.68999C17.3811 1.68999 15.9482 0.213668 12.6946 0V0.466154C12.6946 0.466154 14.4791 0.365268 16.6881 2.4813C15.0207 1.31391 12.6421 0.582613 10 0.582613C7.35791 0.582613 4.97928 1.3138 3.31189 2.4813C5.52085 0.365268 7.30536 0.466154 7.30536 0.466154V0C4.0518 0.213668 2.61887 1.68999 2.61887 1.68999C0.139671 4.79769 0 11.5963 0 11.5963C2.3353 14.335 5.26951 13.9855 5.26951 13.9855L6.34732 12.4705C4.95739 12.1046 3.9648 11.2645 3.36822 10.6103C5.03261 11.7551 7.38736 12.4705 10 12.4705C12.6126 12.4705 14.9674 11.7552 16.6318 10.6103C16.0352 11.2644 15.0426 12.1046 13.6527 12.4705L14.7305 13.9855C14.7305 13.9855 17.6647 14.3352 20 11.5963C20.0002 11.5961 19.8604 4.79769 17.3811 1.68999ZM6.88634 9.67324C5.94931 9.67324 5.18973 8.88788 5.18973 7.91891C5.18973 6.95005 5.94931 6.16459 6.88634 6.16459C7.82337 6.16459 8.58295 6.95005 8.58295 7.91891C8.58295 8.88777 7.82337 9.67324 6.88634 9.67324ZM13.1139 9.67324C12.1769 9.67324 11.4173 8.88788 11.4173 7.91891C11.4173 6.95005 12.1769 6.16459 13.1139 6.16459C14.0509 6.16459 14.8105 6.95005 14.8105 7.91891C14.8105 8.88777 14.051 9.67324 13.1139 9.67324Z" fill="#AFC0D1"/>
</svg>
