<svg width="506" height="505" viewBox="0 0 506 505" fill="none" xmlns="http://www.w3.org/2000/svg">
<path opacity="0.1" d="M260.27 389.69L240.59 405.95H196.09L179.4 389.26L260.27 389.69Z" fill="white"/>
<path opacity="0.1" d="M164.93 389.69L178.76 405.95H134.26L117.57 389.26L164.93 389.69Z" fill="white"/>
<path opacity="0.1" d="M103.09 389.69L116.93 405.95H72.4302L55.7402 389.26L103.09 389.69Z" fill="white"/>
<path opacity="0.1" d="M112.65 64.2599L132.33 48H176.84L193.52 64.69L112.65 64.2599Z" fill="white"/>
<path opacity="0.25" d="M414.98 485.97H238.83L231.43 475.92H44.5701L40.6902 472.05V352.43L27 345.03V191.12L39.6902 183.72V46.65L43.5701 42.78H132.18L143.01 33.26H292.53L299.93 42.78H469.71L473.58 46.65V162.6L482.04 170V297.38L473.64 304.78V472.04L469.77 475.91H422.38L414.98 485.97ZM239.12 485.39H414.68L422.08 475.34H469.52L473.05 471.81V304.55L481.45 297.15V170.28L472.99 162.88V46.91L469.46 43.3801H299.64L292.24 33.86H143.23L132.4 43.3801H43.8201L40.29 46.91V184.07L27.6001 191.47V344.7L41.29 352.1V471.81L44.8201 475.34H231.72L239.12 485.39Z" fill="white"/>
<path opacity="0.1" d="M255.41 498.54H234.02C233.63 498.54 233.25 498.36 233.01 498.05L223.98 486.56H89.3901C88.6801 486.56 88.1101 485.99 88.1101 485.28C88.1101 484.57 88.6801 484 89.3901 484H224.6C224.99 484 225.37 484.18 225.61 484.49L234.64 495.98H255.41C256.12 495.98 256.69 496.55 256.69 497.26C256.69 497.97 256.12 498.54 255.41 498.54Z" fill="white"/>
<path opacity="0.1" d="M29.7402 185.36C29.0302 185.36 28.4602 184.79 28.4602 184.08V131.88C28.4602 131.44 28.68 131.04 29.05 130.8L40.4402 123.48V101.07C40.4402 100.36 41.0102 99.79 41.7202 99.79C42.4302 99.79 43 100.36 43 101.07V124.18C43 124.62 42.7802 125.02 42.4102 125.26L31.02 132.58V184.08C31.02 184.78 30.4502 185.36 29.7402 185.36Z" fill="white"/>
<path opacity="0.1" d="M315.54 43.2501H245.37C245.01 43.2501 244.66 43.1 244.42 42.83L236.24 33.84H215.41C214.7 33.84 214.13 33.2701 214.13 32.5601C214.13 31.8501 214.7 31.28 215.41 31.28H236.8C237.16 31.28 237.51 31.43 237.75 31.7L245.93 40.6901H315.54C316.25 40.6901 316.82 41.26 316.82 41.97C316.82 42.68 316.25 43.2501 315.54 43.2501Z" fill="white"/>
<g filter="url(#filter0_d_105_10657)">
<path d="M273.27 32.25V32.99L273.21 33.39H273.09V34.13V34.87H292.03L297.07 39.75H319.53L324.15 35.28H347.3L351.63 39.48H404.97L412.51 32.25H273.27Z" fill="url(#paint0_radial_105_10657)"/>
<path d="M346.28 36.9299H325.25L320.07 41.9499H295.89L298.04 44.6699H360.64L364.12 41.2999H350.78L346.28 36.9299Z" fill="url(#paint1_radial_105_10657)"/>
</g>
<g filter="url(#filter1_d_105_10657)">
<path d="M464.74 412.75L466.68 410.81V394.69L473.37 388L473.45 472.53L469.24 468.32V444.64L464.74 440.14V412.75Z" fill="url(#paint2_radial_105_10657)"/>
<path d="M468.32 452.03L465.07 448.78L464.97 443.53L468.32 446.88V452.03Z" fill="url(#paint3_radial_105_10657)"/>
<path d="M468.32 459.4L465.07 456.15L464.97 450.9L468.32 454.25V459.4Z" fill="url(#paint4_radial_105_10657)"/>
<path d="M468.32 466.77L465.07 463.52L464.97 458.27L468.32 461.62V466.77Z" fill="url(#paint5_radial_105_10657)"/>
</g>
<g filter="url(#filter2_d_105_10657)">
<path d="M32.3501 87.1301L34.3 85.1801V69.0701L40.9902 62.3801L41.0601 123.05L36.8601 118.84V119.01L32.3501 114.51V87.1301Z" fill="url(#paint6_radial_105_10657)" shape-rendering="crispEdges"/>
</g>
<defs>
<filter id="filter0_d_105_10657" x="241.09" y="0.25" width="203.42" height="76.4199" filterUnits="userSpaceOnUse" color-interpolation-filters="sRGB">
<feFlood flood-opacity="0" result="BackgroundImageFix"/>
<feColorMatrix in="SourceAlpha" type="matrix" values="0 0 0 0 0 0 0 0 0 0 0 0 0 0 0 0 0 0 127 0" result="hardAlpha"/>
<feOffset/>
<feGaussianBlur stdDeviation="16"/>
<feComposite in2="hardAlpha" operator="out"/>
<feColorMatrix type="matrix" values="0 0 0 0 0.963333 0 0 0 0 0.541667 0 0 0 0 1 0 0 0 1 0"/>
<feBlend mode="normal" in2="BackgroundImageFix" result="effect1_dropShadow_105_10657"/>
<feBlend mode="normal" in="SourceGraphic" in2="effect1_dropShadow_105_10657" result="shape"/>
</filter>
<filter id="filter1_d_105_10657" x="432.74" y="356" width="72.71" height="148.53" filterUnits="userSpaceOnUse" color-interpolation-filters="sRGB">
<feFlood flood-opacity="0" result="BackgroundImageFix"/>
<feColorMatrix in="SourceAlpha" type="matrix" values="0 0 0 0 0 0 0 0 0 0 0 0 0 0 0 0 0 0 127 0" result="hardAlpha"/>
<feOffset/>
<feGaussianBlur stdDeviation="16"/>
<feComposite in2="hardAlpha" operator="out"/>
<feColorMatrix type="matrix" values="0 0 0 0 0.963333 0 0 0 0 0.541667 0 0 0 0 1 0 0 0 1 0"/>
<feBlend mode="normal" in2="BackgroundImageFix" result="effect1_dropShadow_105_10657"/>
<feBlend mode="normal" in="SourceGraphic" in2="effect1_dropShadow_105_10657" result="shape"/>
</filter>
<filter id="filter2_d_105_10657" x="0.350098" y="30.3801" width="72.71" height="124.67" filterUnits="userSpaceOnUse" color-interpolation-filters="sRGB">
<feFlood flood-opacity="0" result="BackgroundImageFix"/>
<feColorMatrix in="SourceAlpha" type="matrix" values="0 0 0 0 0 0 0 0 0 0 0 0 0 0 0 0 0 0 127 0" result="hardAlpha"/>
<feOffset/>
<feGaussianBlur stdDeviation="16"/>
<feComposite in2="hardAlpha" operator="out"/>
<feColorMatrix type="matrix" values="0 0 0 0 0.963333 0 0 0 0 0.541667 0 0 0 0 1 0 0 0 1 0"/>
<feBlend mode="normal" in2="BackgroundImageFix" result="effect1_dropShadow_105_10657"/>
<feBlend mode="normal" in="SourceGraphic" in2="effect1_dropShadow_105_10657" result="shape"/>
</filter>
<radialGradient id="paint0_radial_105_10657" cx="0" cy="0" r="1" gradientUnits="userSpaceOnUse" gradientTransform="translate(342.8 36) rotate(90) scale(3.75 69.71)">
<stop stop-color="#C47EFD" stop-opacity="0.5"/>
<stop offset="1" stop-color="#C47EFD"/>
</radialGradient>
<radialGradient id="paint1_radial_105_10657" cx="0" cy="0" r="1" gradientUnits="userSpaceOnUse" gradientTransform="translate(330.005 40.7999) rotate(90) scale(3.87 34.115)">
<stop stop-color="#C47EFD" stop-opacity="0.5"/>
<stop offset="1" stop-color="#C47EFD"/>
</radialGradient>
<radialGradient id="paint2_radial_105_10657" cx="0" cy="0" r="1" gradientUnits="userSpaceOnUse" gradientTransform="translate(469.095 430.265) rotate(90) scale(42.265 4.35498)">
<stop stop-color="#C47EFD" stop-opacity="0.5"/>
<stop offset="1" stop-color="#C47EFD"/>
</radialGradient>
<radialGradient id="paint3_radial_105_10657" cx="0" cy="0" r="1" gradientUnits="userSpaceOnUse" gradientTransform="translate(466.645 447.78) rotate(90) scale(4.25 1.67493)">
<stop stop-color="#C47EFD" stop-opacity="0.5"/>
<stop offset="1" stop-color="#C47EFD"/>
</radialGradient>
<radialGradient id="paint4_radial_105_10657" cx="0" cy="0" r="1" gradientUnits="userSpaceOnUse" gradientTransform="translate(466.645 455.15) rotate(90) scale(4.25 1.67493)">
<stop stop-color="#C47EFD" stop-opacity="0.5"/>
<stop offset="1" stop-color="#C47EFD"/>
</radialGradient>
<radialGradient id="paint5_radial_105_10657" cx="0" cy="0" r="1" gradientUnits="userSpaceOnUse" gradientTransform="translate(466.645 462.52) rotate(90) scale(4.25 1.67493)">
<stop stop-color="#C47EFD" stop-opacity="0.5"/>
<stop offset="1" stop-color="#C47EFD"/>
</radialGradient>
<radialGradient id="paint6_radial_105_10657" cx="0" cy="0" r="1" gradientUnits="userSpaceOnUse" gradientTransform="translate(36.7051 92.7151) rotate(90) scale(30.335 4.35498)">
<stop stop-color="#C47EFD" stop-opacity="0.5"/>
<stop offset="1" stop-color="#C47EFD"/>
</radialGradient>
</defs>
</svg>
