<svg width="16" height="16" viewBox="0 0 16 16" fill="none" xmlns="http://www.w3.org/2000/svg">
<path fill-rule="evenodd" clip-rule="evenodd" d="M6.09524 7.2381H1.14286C0.510476 7.2381 0 6.72648 0 6.09524V1.90476C0 0.852952 0.853333 0 1.90476 0H6.09524C6.72762 0 7.2381 0.511619 7.2381 1.14286V6.09524C7.2381 6.72648 6.72762 7.2381 6.09524 7.2381Z" fill="#AFC0D1"/>
<path fill-rule="evenodd" clip-rule="evenodd" d="M14.8571 7.2381H9.90476C9.27238 7.2381 8.7619 6.72648 8.7619 6.09524V1.14286C8.7619 0.511619 9.27238 0 9.90476 0H14.0952C15.1467 0 16 0.852952 16 1.90476V6.09524C16 6.72648 15.4895 7.2381 14.8571 7.2381Z" fill="#AFC0D1"/>
<path fill-rule="evenodd" clip-rule="evenodd" d="M6.09524 16H1.90476C0.853333 16 0 15.147 0 14.0952V9.90476C0 9.27352 0.510476 8.7619 1.14286 8.7619H6.09524C6.72762 8.7619 7.2381 9.27352 7.2381 9.90476V14.8571C7.2381 15.4884 6.72762 16 6.09524 16Z" fill="#AFC0D1"/>
<path fill-rule="evenodd" clip-rule="evenodd" d="M14.0952 16H9.90476C9.27238 16 8.7619 15.4884 8.7619 14.8571V9.90476C8.7619 9.27352 9.27238 8.7619 9.90476 8.7619H14.8571C15.4895 8.7619 16 9.27352 16 9.90476V14.0952C16 15.147 15.1467 16 14.0952 16Z" fill="#AFC0D1"/>
</svg>
