<svg width="24" height="24" viewBox="0 0 24 24"  xmlns="http://www.w3.org/2000/svg">
<path fill-rule="evenodd" clip-rule="evenodd" d="M5.3335 4.66683V19.3333C5.3335 20.6818 6.42778 21.7778 7.77791 21.7778H15.926C17.2757 21.7778 18.3704 20.6818 18.3704 19.3333V18.3148C18.3704 17.7526 17.9145 17.2963 17.3519 17.2963C16.7893 17.2963 16.3334 17.7526 16.3334 18.3148V19.3333C16.3334 19.5574 16.15 19.7407 15.926 19.7407H7.77791C7.55384 19.7407 7.37051 19.5574 7.37051 19.3333V4.66683C7.37051 4.44276 7.55384 4.25943 7.77791 4.25943H15.926C16.15 4.25943 16.3334 4.44276 16.3334 4.66683V5.68534C16.3334 6.24755 16.7893 6.70385 17.3519 6.70385C17.9145 6.70385 18.3704 6.24755 18.3704 5.68534V4.66683C18.3704 3.31833 17.2757 2.22241 15.926 2.22241H7.77791C6.42778 2.22241 5.3335 3.31833 5.3335 4.66683Z" />
<path fill-rule="evenodd" clip-rule="evenodd" d="M19.7621 12.5744L16.7147 15.6259C16.2018 16.1392 15.3214 15.7766 15.3214 15.0514V13.6296H11.2759C10.8261 13.6296 10.4611 13.267 10.4611 12.8148V11.1852C10.4611 10.737 10.8261 10.3704 11.2759 10.3704H15.3214V8.94855C15.3214 8.22337 16.2018 7.86078 16.7147 8.37411L19.7621 11.4256C20.079 11.7433 20.079 12.2567 19.7621 12.5744Z"/>
</svg>
