<svg width="22" height="23" viewBox="0 0 22 23" xmlns="http://www.w3.org/2000/svg">
<path fill-rule="evenodd" clip-rule="evenodd" d="M20.513 13.9273L19.7791 13.175C19.398 12.8033 19.1972 12.2844 19.2287 11.753C19.2752 11.2465 19.2752 10.7367 19.2287 10.2302C19.1904 9.70672 19.3851 9.19308 19.7607 8.82654L20.5038 8.0651C21.0792 7.47609 21.1918 6.57588 20.7791 5.86335L20.3295 5.08356C19.9207 4.37718 19.0945 4.02574 18.3021 4.2212L17.192 4.49642C16.6759 4.62261 16.1304 4.51887 15.6967 4.21203C15.5071 4.07748 15.3083 3.9521 15.1004 3.8359C14.8924 3.71969 14.6937 3.61878 14.5041 3.53316C13.9998 3.3102 13.6225 2.87227 13.4766 2.34054L13.2013 1.34975C12.9764 0.529177 12.2169 -0.0290978 11.3666 0.00117333H10.4492C9.64984 0.0160262 8.95215 0.546716 8.72445 1.31305L8.38501 2.45063C8.24547 2.93364 7.91384 3.33822 7.46761 3.56985C7.0144 3.78422 6.58146 4.03907 6.17408 4.33129C5.74501 4.63281 5.20742 4.73632 4.69707 4.61569L3.63289 4.35881C2.82759 4.17311 1.99752 4.54871 1.60544 5.27621L1.14674 6.0927C0.741104 6.80503 0.857188 7.70001 1.43113 8.28528L2.16505 9.03755C2.54612 9.40924 2.74697 9.92812 2.71549 10.4595C2.66899 10.9661 2.66899 11.4758 2.71549 11.9824C2.75376 12.5058 2.55904 13.0195 2.1834 13.386L1.4403 14.1475C0.864904 14.7365 0.752378 15.6367 1.16508 16.3492L1.61461 17.129C2.02342 17.8354 2.84967 18.1868 3.64206 17.9914L4.75211 17.7161C5.26823 17.5899 5.81371 17.6937 6.24747 18.0005C6.43707 18.1351 6.63584 18.2605 6.84378 18.3767C7.05172 18.4929 7.25049 18.5938 7.44009 18.6794C7.94439 18.9024 8.32168 19.3403 8.46758 19.872L8.74279 20.8628C8.96773 21.6834 9.72729 22.2417 10.5776 22.2114H11.495C12.2943 22.1965 12.992 21.6658 13.2197 20.8995L13.5591 19.7619C13.6987 19.2789 14.0303 18.8743 14.4765 18.6427C14.9297 18.4283 15.3627 18.1735 15.7701 17.8813C16.1991 17.5797 16.7367 17.4762 17.2471 17.5969L18.3113 17.8537C19.1166 18.0394 19.9466 17.6639 20.3387 16.9363L20.7974 16.1199C21.203 15.4075 21.087 14.5126 20.513 13.9273ZM10.9904 14.7713C8.96375 14.7713 7.32082 13.1283 7.32082 11.1017C7.32082 9.07503 8.96375 7.43209 10.9904 7.43209C13.0171 7.43209 14.66 9.07503 14.66 11.1017C14.66 13.1283 13.0171 14.7713 10.9904 14.7713Z" />
</svg>
