<svg width="18" height="18" viewBox="0 0 18 18" fill="none" xmlns="http://www.w3.org/2000/svg">
<path d="M16.009 1.00664H14.868C14.0836 1.00664 14.0693 1.43452 14.0693 1.43452C14.0693 1.43452 13.9338 1.40599 13.9552 1.26337C13.9695 1.18492 13.8625 1.07796 13.7698 0.999512H11.8586C11.5234 0.999512 11.4521 1.12074 11.445 1.17779C11.4593 1.19205 11.4593 1.19919 11.4593 1.20632C11.4593 1.23484 11.445 1.22058 11.4521 1.18492C11.4022 1.10648 11.0956 1.00664 11.0956 1.00664H9.32703C8.93481 1.00664 8.73514 1.43452 8.73514 1.43452C8.73514 1.43452 8.69235 1.22058 8.64956 1.08509C8.64243 1.05656 8.59964 1.02804 8.54259 1.00664H6.51019C6.08945 1.08509 5.66158 1.00664 5.22657 1.00664C4.79157 1.00664 4.56337 1.43452 4.56337 1.43452C4.56337 1.43452 4.53485 1.20632 4.42788 1.14214C4.32091 1.07796 4.06419 1.00664 3.85738 1.00664H2.00326C1.60392 1.00664 1.27588 1.34181 1.27588 1.75542V16.2175C1.27588 16.5242 1.45416 16.788 1.71088 16.9021C2.2172 16.9093 3.3582 16.9021 3.47229 16.6953C3.62205 16.4315 3.74328 16.2318 3.74328 16.2318C3.74328 16.2318 3.85025 16.6454 4.02853 16.6739C4.20681 16.7025 4.94846 16.7167 5.06969 16.7381C5.19092 16.7524 5.6901 16.7239 5.8256 16.6739C5.96109 16.6311 6.00388 16.6026 6.2606 16.5598C6.51733 16.517 6.63856 16.4101 6.77405 16.4243C6.90954 16.4386 7.03077 16.895 7.60127 16.8879C8.17177 16.8807 8.35718 16.8665 8.76366 16.8879C9.17014 16.9093 9.04891 16.788 9.33416 16.788C9.61941 16.788 9.96884 16.6811 10.0401 16.7096C10.1186 16.7381 10.2969 16.5527 10.4609 16.5527C10.6249 16.5527 11.1526 16.4743 11.338 16.5527C11.5163 16.6311 11.502 16.838 11.609 16.8879C11.716 16.9378 11.9442 16.895 12.1367 16.8879C12.3364 16.8807 12.7571 16.788 12.8784 16.788C12.9996 16.788 13.3776 16.6311 13.4489 16.6311C13.5273 16.6311 13.9766 16.4529 14.0408 16.567C14.0978 16.6811 14.5542 16.9164 14.5542 16.9164C14.5542 16.9164 14.704 16.8451 14.8537 16.9164C15.0035 16.9877 15.6667 16.9164 15.6667 16.9164L15.6738 16.9521H15.9876C16.3869 16.9521 16.715 16.6169 16.715 16.2033V1.75542C16.7364 1.34181 16.4083 1.00664 16.009 1.00664Z" fill="url(#paint0_linear_320_3266)"/>
<path opacity="0.5" d="M16.7363 6.1412H8.43557L11.6803 14.1068L2.55945 6.1412H1.28296V4.52954H16.7363V6.1412Z" fill="#622313"/>
<path opacity="0.5" d="M2.25988 10.1846C2.25988 10.1846 2.23135 8.72983 2.21709 8.11654C2.20283 7.50326 2.08873 6.38365 2.05307 6.18398C2.01742 5.98431 2.13865 4.40117 2.13865 4.40117L2.39537 4.39404L2.25988 10.1846Z" fill="#622313"/>
<path opacity="0.5" d="M7.64391 14.1067C7.64391 14.1067 7.61539 12.6519 7.60112 12.0387C7.58686 11.4254 7.47276 10.3058 7.43711 10.1061C7.40145 9.90642 7.52268 8.32329 7.52268 8.32329L7.7794 8.31616L7.64391 14.1067Z" fill="#622313"/>
<path opacity="0.5" d="M5.29077 12.716C5.3193 12.5948 5.51897 11.7034 5.51897 11.7034V12.6376C5.51897 12.6376 5.51897 12.6376 5.56176 12.1598C5.60455 11.682 5.68299 9.32153 5.68299 9.32153V12.8943V13.0012L5.29077 12.716Z" fill="#622313"/>
<path opacity="0.3" d="M16.4725 1.18481C16.4725 1.20621 16.4725 1.2276 16.4725 1.249V15.7111C16.4725 16.1247 16.1516 16.4599 15.7451 16.4599H15.4812V16.4528C15.4812 16.4528 15.4242 14.2136 15.3885 13.693C15.36 13.1724 15.2673 11.2042 15.2673 11.2042C15.2673 11.2042 15.2673 12.3523 15.2673 13.6003C15.2673 14.727 15.2673 15.9322 15.2673 16.4385C15.0605 16.4528 14.7039 16.4742 14.6041 16.4242C14.4543 16.3529 14.3046 16.4242 14.3046 16.4242C14.3046 16.4242 13.8553 16.1889 13.7911 16.0748C13.7341 15.9607 13.2777 16.139 13.1992 16.139C13.1279 16.139 12.7714 16.2816 12.643 16.2887L12.7642 10.9617L12.5075 10.9689C12.5075 10.9689 12.3934 12.552 12.4219 12.7517C12.4576 12.9513 12.5717 14.0709 12.586 14.6842C12.5931 15.0764 12.6074 15.8109 12.6216 16.2959C12.4933 16.2959 12.0796 16.3886 11.8871 16.3957C11.6874 16.4028 11.4664 16.4456 11.3594 16.3957C11.2524 16.3458 11.2667 16.139 11.0884 16.0605C10.9101 15.9821 10.3824 16.0605 10.2113 16.0605C10.0472 16.0605 9.86184 16.246 9.79052 16.2174C9.71208 16.1889 9.36978 16.2959 9.08453 16.2959C8.79928 16.2959 8.92051 16.4171 8.51404 16.3957C8.10756 16.3743 7.92214 16.3886 7.35165 16.3957C6.78115 16.4028 6.65992 15.9464 6.52443 15.9322C6.38893 15.9179 6.2677 16.0249 6.01098 16.0677C5.75425 16.1105 5.71147 16.1319 5.57597 16.1818C5.44761 16.2246 4.98408 16.2531 4.84146 16.246V12.9157C4.84146 12.9157 4.76301 15.2761 4.72023 15.7539C4.67744 16.2317 4.67744 16.2317 4.67744 16.2317V15.2975C4.67744 15.2975 4.52768 15.9821 4.47063 16.2317C4.21391 16.2174 3.90014 16.2103 3.78604 16.1889C3.60776 16.1604 3.50079 15.7468 3.50079 15.7468C3.50079 15.7468 3.37956 15.9464 3.2298 16.2103C3.1157 16.41 1.96758 16.4242 1.46839 16.4171C1.40421 16.3886 1.34716 16.3529 1.29724 16.303C1.31863 16.5811 1.48978 16.8093 1.72511 16.9234C2.23143 16.9305 3.37243 16.9234 3.48653 16.7166C3.63628 16.4528 3.75751 16.2531 3.75751 16.2531C3.75751 16.2531 3.86448 16.6667 4.04276 16.6952C4.22104 16.7237 4.96269 16.738 5.08392 16.7594C5.20515 16.7737 5.70433 16.7451 5.83983 16.6952C5.97532 16.6524 6.01811 16.6239 6.27483 16.5811C6.53156 16.5383 6.65279 16.4314 6.78828 16.4456C6.92377 16.4599 7.045 16.9163 7.6155 16.9092C8.186 16.902 8.37141 16.8878 8.77789 16.9092C9.18437 16.9305 9.06314 16.8093 9.34839 16.8093C9.63364 16.8093 9.98307 16.7023 10.0544 16.7309C10.1328 16.7594 10.3111 16.574 10.4751 16.574C10.6391 16.574 11.1668 16.4955 11.3523 16.574C11.5305 16.6524 11.5163 16.8592 11.6232 16.9092C11.7302 16.9591 11.9584 16.9163 12.151 16.9092C12.3506 16.902 12.7714 16.8093 12.8926 16.8093C13.0138 16.8093 13.3918 16.6524 13.4631 16.6524C13.5415 16.6524 13.9908 16.4742 14.055 16.5883C14.112 16.7023 14.5684 16.9377 14.5684 16.9377C14.5684 16.9377 14.7182 16.8664 14.868 16.9377C15.0177 17.009 15.6809 16.9377 15.6809 16.9377L15.688 16.9733H16.0018C16.4012 16.9733 16.7292 16.6382 16.7292 16.2246V1.75531C16.7363 1.52711 16.6294 1.32031 16.4725 1.18481Z" fill="#622313"/>
<path opacity="0.5" d="M15.3815 4.61499V4.72196V8.2947C15.3815 8.2947 15.4599 5.93427 15.5027 5.45647C15.5455 4.97868 15.5455 4.97868 15.5455 4.97868V5.91287C15.5455 5.91287 15.7452 5.02147 15.7737 4.90024L15.3815 4.61499Z" fill="#622313"/>
<path opacity="0.5" d="M8.62088 1.00659C8.62088 1.00659 8.74211 1.24905 8.83482 1.68406C8.92752 2.11193 8.94892 3.70932 8.94892 3.70932L8.29285 2.69669C8.29285 2.69669 8.09317 2.2189 8.29285 2.01923C8.49252 1.81242 8.62801 1.01372 8.3499 1.01372C8.07891 1.00659 8.62088 1.00659 8.62088 1.00659Z" fill="#622313"/>
<path opacity="0.5" d="M10.9458 1.00659H11.1883L11.4022 1.14208C11.4022 1.14208 11.4022 1.31323 11.4022 1.86234C11.4022 2.41144 11.174 3.1103 11.174 3.1103C11.174 3.1103 11.4022 1.00659 10.9458 1.00659Z" fill="#622313"/>
<path opacity="0.5" d="M9.91878 4.85756V6.48348V8.17358C9.91878 8.17358 9.89025 7.89546 9.82607 7.83841C9.76902 7.77423 9.75476 4.73633 9.75476 4.73633L9.91878 4.85756Z" fill="#622313"/>
<path opacity="0.5" d="M3.92859 1.01372C3.92859 1.01372 4.29228 1.02799 4.29228 1.34889C4.29228 1.6698 4.53474 9.72807 4.53474 9.72807L4.64171 7.48887V10.7692C4.64171 10.7692 4.58466 3.75211 4.58466 2.5612C4.57753 1.37029 4.67024 0.921018 3.92859 1.01372Z" fill="#622313"/>
<path opacity="0.5" d="M16.2298 1.04224C16.2298 1.04224 16.6934 1.19199 16.6934 1.57708C16.6934 1.96216 15.7734 2.36151 15.7734 2.36151C15.7734 2.36151 16.5864 1.44872 16.2298 1.04224Z" fill="#622313"/>
<path opacity="0.5" d="M16.7292 12.7873C16.6864 12.7659 16.6365 12.7588 16.5866 12.7588H1.30435C1.29722 12.7588 1.29009 12.7588 1.28296 12.7588V16.303C1.29009 16.303 1.29722 16.303 1.30435 16.303C1.30435 16.303 3.72897 16.467 8.79927 16.467C13.8696 16.467 16.5866 16.303 16.5866 16.303C16.6365 16.303 16.6864 16.2887 16.7292 16.2745V12.7873Z" fill="#622313"/>
<path opacity="0.5" d="M11.9584 3.70227C11.9584 3.70227 11.8656 6.14828 11.8799 6.90419C11.8942 7.66723 11.9584 8.16642 11.9584 8.16642V10.6909C11.9584 10.6909 12.0938 8.70839 12.1081 8.05945C12.1224 7.40337 12.2293 5.18557 12.2293 5.18557L12.3648 6.98976C12.3648 6.98976 12.5003 4.85753 12.3648 4.03031C12.2293 3.20309 11.9584 3.70227 11.9584 3.70227Z" fill="#622313"/>
<path d="M14.9748 15.5615C14.8536 15.7112 14.6254 15.7255 14.4614 15.59L1.71788 4.98589C1.561 4.8504 1.53247 4.62933 1.6537 4.47957L3.47216 2.29029C3.59339 2.14053 3.82159 2.12627 3.98561 2.26176L16.7362 12.8659C16.8931 13.0014 16.9216 13.2224 16.8004 13.3722L14.9748 15.5615Z" fill="url(#paint1_linear_320_3266)"/>
<path d="M14.768 15.0694C14.6468 15.2191 14.4186 15.2334 14.2546 15.0979L1.5111 4.48662C1.35421 4.35113 1.32568 4.13006 1.44691 3.98031L3.26538 1.79102C3.38661 1.64127 3.61481 1.627 3.77882 1.7625L16.5223 12.3738C16.6792 12.5092 16.7077 12.7303 16.5865 12.8801L14.768 15.0694Z" fill="url(#paint2_linear_320_3266)"/>
<path opacity="0.3" d="M6.43878 4.7005C7.25887 5.73453 7.89355 6.09822 8.6138 6.81848C9.33405 7.53873 10.2469 8.36595 10.2469 8.36595C10.2469 8.36595 10.0757 8.01652 9.56225 7.56012C9.0488 7.10373 8.09322 6.10536 8.09322 6.10536L7.54412 5.54199C7.54412 5.54199 8.72077 6.66159 9.41963 7.17504C10.1185 7.68849 10.1541 7.68849 11.0527 8.57276C11.9583 9.45703 12.8426 10.2343 12.9425 10.3556C13.0494 10.4839 13.57 10.9261 13.57 10.9261C13.57 10.9261 11.9156 9.20031 11.7373 9.03629C11.559 8.8794 12.0225 9.3358 10.9243 8.30177C9.82611 7.26774 9.1629 6.71151 9.1629 6.71151C9.1629 6.71151 8.2929 5.87003 7.89355 5.56338C7.4942 5.25674 7.13764 4.95723 6.95936 4.80747C6.78108 4.65059 5.32631 3.33131 4.98401 3.29565C4.99114 3.30992 5.61869 3.66648 6.43878 4.7005Z" fill="#622313"/>
<path opacity="0.3" d="M8.71362 7.00391C8.71362 7.00391 10.2896 8.75819 10.582 9.01491C10.8744 9.27163 11.6731 9.92058 11.6731 9.92058C11.6731 9.92058 10.853 9.16467 10.254 8.58704C9.66208 8.00941 8.71362 7.00391 8.71362 7.00391Z" fill="#622313"/>
<path opacity="0.3" d="M3.09424 4.61499C3.09424 4.61499 4.67024 6.36927 4.96262 6.62599C5.255 6.88272 6.05369 7.53166 6.05369 7.53166C6.05369 7.53166 5.2336 6.77575 4.64171 6.19812C4.04269 5.62049 3.09424 4.61499 3.09424 4.61499Z" fill="#622313"/>
<path opacity="0.3" d="M10.1541 10.4199C10.1541 10.4199 9.44813 9.84223 9.23419 9.64255C9.02026 9.45001 8.27148 8.83673 7.5227 8.16639C6.77392 7.50319 6.50293 7.25359 5.89678 6.71875C5.29063 6.17678 4.32791 5.35669 4.32791 5.35669L4.30652 5.37808C5.00538 6.02702 8.00049 8.90091 8.38558 9.11484C8.77066 9.32878 8.92042 9.57837 9.31977 9.89928C9.71198 10.2202 10.1541 10.4199 10.1541 10.4199Z" fill="#622313"/>
<path opacity="0.3" d="M14.7894 13.201C14.5754 13.0084 13.8267 12.3951 13.0779 11.7248C12.3291 11.0545 12.051 10.812 11.452 10.27C10.8458 9.72805 9.88309 8.90796 9.88309 8.90796L9.86169 8.92935C10.5606 9.57829 13.5557 12.4522 13.9408 12.6661C14.3258 12.88 14.4756 13.1296 14.8749 13.4505C15.2743 13.7715 15.7164 13.9711 15.7164 13.9711C15.7164 13.9711 15.0033 13.3935 14.7894 13.201Z" fill="#622313"/>
<path opacity="0.3" d="M6.56721 7.02519C6.97369 7.43167 7.80804 8.07348 7.80804 8.07348C7.80804 8.07348 7.00934 7.27478 6.56721 6.83977C6.12507 6.39764 5.73998 5.99829 5.15522 5.34935C4.57759 4.70041 3.05151 3.44531 3.05151 3.44531C3.80742 4.19409 6.16073 6.62584 6.56721 7.02519Z" fill="#622313"/>
<path opacity="0.3" d="M10.9315 11.675C10.3253 11.0474 8.75647 9.84937 8.75647 9.84937C9.5409 10.5696 11.9798 12.9015 12.4077 13.2937C12.8284 13.686 13.6913 14.2992 13.6913 14.2992C13.6913 14.2992 12.8569 13.5291 12.4005 13.1083C11.937 12.6876 11.5376 12.3025 10.9315 11.675Z" fill="#622313"/>
<path opacity="0.5" d="M1.68945 4.95028L2.317 5.48512L8.29296 5.52078L6.93803 4.39404L1.68945 4.95028Z" fill="#622313"/>
<path d="M17.1427 15.7041C17.1427 15.8966 16.9859 16.0535 16.7933 16.0535H1.24726C1.05471 16.0535 0.897827 15.8966 0.897827 15.7041V12.8587C0.897827 12.6662 1.05471 12.5093 1.24726 12.5093H16.7933C16.9859 12.5093 17.1427 12.6662 17.1427 12.8587V15.7041Z" fill="url(#paint3_linear_320_3266)"/>
<path d="M16.8717 3.98752C16.8646 3.99465 16.8646 3.99465 16.8646 3.99465C16.8646 3.99465 16.8717 3.99465 16.8717 3.98752C16.9074 3.95899 17.0785 3.79497 17.0785 3.23874C17.0785 2.60406 16.2299 2.58267 16.5794 2.58267C16.7648 2.58267 16.9502 2.51849 17.0785 2.46144V2.02643C17.0785 1.83389 16.9217 1.677 16.7291 1.677H1.18305C0.990505 1.677 0.833618 1.83389 0.833618 2.02643V2.74668C0.997636 2.74668 1.16165 2.74668 1.16165 2.74668C1.16165 2.74668 0.926324 2.88931 0.833618 3.1389V3.68801C0.912062 3.73079 0.997636 3.77358 1.04755 3.77358C1.14739 3.77358 1.57527 3.85202 1.57527 3.85202C1.57527 3.85202 0.933455 3.93047 0.883537 4.03744C0.833618 4.13727 0.833618 4.36547 0.833618 4.36547V4.87179C0.833618 5.06433 0.990505 5.22122 1.18305 5.22122H16.7291C16.9217 5.22122 17.0785 5.06433 17.0785 4.87179V4.55088C17.0785 4.55088 17.0358 4.47244 17.0358 4.1658C17.0358 3.90194 16.9074 3.96612 16.8717 3.98752Z" fill="url(#paint4_linear_320_3266)"/>
<path d="M16.8717 3.78078C16.8646 3.78791 16.8646 3.78791 16.8646 3.78791L16.8717 3.78078C16.9074 3.75226 17.0785 3.58824 17.0785 3.032C17.0785 2.39732 16.2299 2.37593 16.5794 2.37593C16.7648 2.37593 16.9502 2.31175 17.0785 2.24757V1.81256C17.0785 1.62002 16.9217 1.46313 16.7291 1.46313H1.18305C0.990505 1.46313 0.833618 1.62002 0.833618 1.81256V2.53282C0.997636 2.53282 1.16165 2.53282 1.16165 2.53282C1.16165 2.53282 0.926324 2.67544 0.833618 2.92503V3.47414C0.912062 3.51693 0.997636 3.55971 1.04755 3.55971C1.14739 3.55971 1.57527 3.63816 1.57527 3.63816C1.57527 3.63816 0.933455 3.7166 0.883537 3.82357C0.833618 3.92341 0.833618 4.1516 0.833618 4.1516V4.53669C0.833618 4.72923 0.990505 4.88612 1.18305 4.88612H16.7291C16.9217 4.88612 17.0785 4.72923 17.0785 4.53669V4.33702C17.0785 4.33702 17.0358 4.25857 17.0358 3.95193C17.0358 3.68808 16.9074 3.75226 16.8717 3.78078Z" fill="url(#paint5_linear_320_3266)"/>
<path d="M16.7291 1.46313H1.18305C0.990505 1.46313 0.833618 1.62002 0.833618 1.81256V2.1406C0.833618 1.94806 0.990505 1.79117 1.18305 1.79117H16.7291C16.9217 1.79117 17.0785 1.94806 17.0785 2.1406V1.81256C17.0785 1.62002 16.9217 1.46313 16.7291 1.46313Z" fill="#FCA286"/>
<path d="M16.7933 12.2026H1.24726C1.05471 12.2026 0.897827 12.3595 0.897827 12.5521V12.8801C0.897827 12.6876 1.05471 12.5307 1.24726 12.5307H16.7933C16.9859 12.5307 17.1427 12.6876 17.1427 12.8801V12.5521C17.1427 12.3595 16.9859 12.2026 16.7933 12.2026Z" fill="#FCA286"/>
<path opacity="0.3" d="M1.93188 3.64518C1.93188 3.64518 2.63788 3.48829 3.93576 3.70936C5.23364 3.92329 5.94676 3.77354 6.97366 3.82346C8.00055 3.87338 9.22712 3.87338 9.22712 3.87338C9.22712 3.87338 8.86343 3.73075 8.17883 3.73075C7.49424 3.73788 6.11791 3.63805 6.11791 3.63805L5.33348 3.59526C5.33348 3.59526 6.95939 3.63805 7.82227 3.55247C8.68515 3.4669 8.70654 3.4455 9.9759 3.49542C11.2381 3.54534 12.4148 3.53108 12.5788 3.55247C12.7428 3.57386 13.4274 3.55247 13.4274 3.55247C13.4274 3.55247 11.0385 3.38132 10.8031 3.38132C10.5678 3.38132 11.2167 3.40985 9.71205 3.38132C8.20023 3.3528 7.33735 3.38132 7.33735 3.38132C7.33735 3.38132 6.12504 3.33853 5.62586 3.38132C5.12667 3.42411 4.66314 3.43837 4.42781 3.4455C4.17822 3.45263 2.21713 3.4455 1.93188 3.64518Z" fill="#622313"/>
<path opacity="0.3" d="M1.74646 4.53666C1.74646 4.53666 3.08713 4.56519 3.515 4.61511C3.94288 4.65789 4.24239 4.72207 4.99117 4.73634C5.73994 4.7506 6.08224 4.73634 6.08224 4.73634C6.08224 4.73634 5.16231 4.64363 4.77723 4.61511C4.38501 4.58658 2.1886 4.50814 1.74646 4.53666Z" fill="#622313"/>
<path opacity="0.3" d="M1.5824 2.51123C1.5824 2.51123 2.38109 2.57541 2.86602 2.57541C3.34381 2.57541 3.99275 2.54689 3.99275 2.54689C3.99275 2.54689 3.40086 2.63959 3.17266 2.66099C2.94446 2.67525 1.5824 2.51123 1.5824 2.51123Z" fill="#622313"/>
<path opacity="0.3" d="M11.8799 4.32275C11.8799 4.32275 13.2633 4.38693 14.0906 4.38693C14.9178 4.38693 16.0374 4.35841 16.0374 4.35841C16.0374 4.35841 15.0105 4.45112 14.6254 4.47251C14.2332 4.48677 11.8799 4.32275 11.8799 4.32275Z" fill="#622313"/>
<path opacity="0.3" d="M8.95618 2.86082C8.95618 2.86082 10.9244 2.67541 11.7944 2.72533C12.6644 2.77525 13.2135 2.78951 13.8411 2.78951C14.4686 2.78951 15.6025 2.78951 15.6025 2.78951C15.6025 2.78951 14.5542 2.925 13.9766 2.925C13.3989 2.925 10.0187 2.86082 8.95618 2.86082Z" fill="#622313"/>
<path d="M3.5791 3.70947C3.5791 3.70947 4.71297 3.78792 5.43322 3.87349C6.15347 3.95193 6.68831 3.83783 7.05914 3.87349C7.42996 3.90915 8.193 3.90202 8.193 3.90202C8.193 3.90202 6.07503 3.98759 5.51879 3.98759C4.96969 3.98759 3.5791 3.70947 3.5791 3.70947Z" fill="#FCA286"/>
<path opacity="0.3" d="M1.79639 5.22119C1.79639 5.22119 7.18046 5.33529 9.08449 5.33529C10.9885 5.33529 16.0374 5.22119 16.0374 5.22119H1.79639Z" fill="#622313"/>
<path opacity="0.3" d="M1.31152 16.0535C1.31152 16.0535 6.6956 16.1676 8.59963 16.1676C10.5037 16.1676 15.5526 16.0535 15.5526 16.0535H1.31152Z" fill="#622313"/>
<path d="M9.49805 2.92498C9.49805 2.92498 10.9885 2.94638 11.6303 2.92498C12.2721 2.90359 13.3061 2.84654 13.6413 2.93211C13.9765 3.01769 14.932 2.93211 14.932 2.93211C14.932 2.93211 13.2562 2.95351 12.9496 2.96777C12.6429 2.98916 10.0472 2.98203 9.49805 2.92498Z" fill="#FCA286"/>
<path opacity="0.3" d="M1.47546 4.88599C1.47546 4.88599 5.80411 4.88599 7.97914 4.88599C10.1613 4.88599 16.1301 4.88599 16.1301 4.88599C16.1301 4.88599 12.0368 5.04287 9.2271 5.04287C6.4174 5.04287 1.47546 4.88599 1.47546 4.88599Z" fill="#622313"/>
<path opacity="0.3" d="M1.10461 15.7468C1.10461 15.7468 5.43327 15.7468 7.60829 15.7468C9.79044 15.7468 15.7593 15.7468 15.7593 15.7468C15.7593 15.7468 11.666 15.9108 8.85625 15.9108C6.04655 15.9108 1.10461 15.7468 1.10461 15.7468Z" fill="#622313"/>
<path d="M8.57812 5.7561L15.9019 11.8462C15.9019 11.8462 14.8251 11.4611 12.5716 9.45008C10.3181 7.45333 8.57812 5.7561 8.57812 5.7561Z" fill="#FCA286"/>
<path d="M16.8718 14.9909C16.7149 14.9125 15.5382 14.8412 15.5382 14.8412C15.5382 14.8412 16.7434 14.8626 17.0786 14.884C17.1 14.884 17.1214 14.884 17.1427 14.884V13.9284C17.1427 14.1637 17.1285 13.3294 16.7862 13.1368C16.6935 13.1226 16.615 13.1012 16.615 13.1012C16.6792 13.094 16.7363 13.1083 16.7862 13.1368C16.9145 13.1511 17.0786 13.144 17.1427 13.0085V12.5521C17.1427 12.3595 16.9859 12.2026 16.7933 12.2026H1.24726C1.05471 12.2026 0.897827 12.3595 0.897827 12.5521V13.1725C0.933483 13.201 0.990533 13.2224 1.07611 13.2224C1.26152 13.2224 0.990533 13.2224 0.897827 13.5077V14.2279C0.904958 14.2422 0.91209 14.2564 0.919221 14.2778C1.01193 14.4704 0.940614 14.4347 1.16168 14.5274C1.25439 14.5631 1.37562 14.5916 1.48259 14.6059C1.62521 14.613 1.74644 14.6344 1.74644 14.6344C1.74644 14.6344 1.62521 14.6273 1.48259 14.6059C1.31857 14.5916 1.13316 14.5916 1.04758 14.6344C0.890696 14.7128 1.16168 14.8626 1.16168 14.8626C1.16168 14.8626 1.01906 14.8412 0.897827 14.8412V15.3974C0.897827 15.59 1.05471 15.7469 1.24726 15.7469H16.7933C16.9859 15.7469 17.1427 15.59 17.1427 15.3974V15.0694C17.0643 15.0409 16.9645 15.0337 16.8718 14.9909Z" fill="url(#paint6_linear_320_3266)"/>
<path opacity="0.3" d="M9.89026 12.9228C9.89026 12.9228 10.311 12.8301 11.0883 12.9585C11.8656 13.0869 12.2863 12.9942 12.8996 13.0227C13.5129 13.0512 14.2403 13.0512 14.2403 13.0512C14.2403 13.0512 14.0264 12.9656 13.6128 12.9656C13.2063 12.9728 12.3862 12.9086 12.3862 12.9086L11.9155 12.8801C11.9155 12.8801 12.8854 12.9086 13.3988 12.8515C13.9123 12.8016 13.9265 12.7874 14.6824 12.8159C15.4383 12.8444 16.1372 12.8373 16.2299 12.8515C16.3298 12.8658 16.7362 12.8515 16.7362 12.8515C16.7362 12.8515 15.31 12.7517 15.1745 12.7517C15.0319 12.7517 15.4241 12.7731 14.5256 12.7517C13.627 12.7303 13.1136 12.7517 13.1136 12.7517C13.1136 12.7517 12.3933 12.7303 12.0938 12.7517C11.7943 12.7731 11.5233 12.7874 11.3807 12.7874C11.2238 12.8087 10.0543 12.8016 9.89026 12.9228Z" fill="#622313"/>
<path opacity="0.3" d="M5.255 13.5718C5.255 13.5718 7.22322 13.3863 8.09323 13.4363C8.96324 13.4862 9.51234 13.5004 10.1399 13.5004C10.7674 13.5004 11.9013 13.5004 11.9013 13.5004C11.9013 13.5004 10.853 13.6359 10.2754 13.6359C9.69775 13.6288 6.31756 13.5718 5.255 13.5718Z" fill="#622313"/>
<path opacity="0.3" d="M1.25439 12.9443C1.25439 12.9443 3.22261 12.7589 4.09262 12.8088C4.96263 12.8587 5.51173 12.873 6.13928 12.873C6.76683 12.873 7.90069 12.873 7.90069 12.873C7.90069 12.873 6.8524 13.0085 6.27477 13.0085C5.69714 13.0085 2.31695 12.9443 1.25439 12.9443Z" fill="#622313"/>
<path opacity="0.3" d="M12.6073 13.4578C12.6073 13.4578 13.406 13.5219 13.8909 13.5219C14.3687 13.5219 15.0177 13.4934 15.0177 13.4934C15.0177 13.4934 14.4258 13.5861 14.1976 13.6075C13.9694 13.6218 12.6073 13.4578 12.6073 13.4578Z" fill="#622313"/>
<path opacity="0.3" d="M6.68835 14.4561C6.68835 14.4561 7.48705 14.5202 7.97197 14.5202C8.44977 14.5202 9.09871 14.4917 9.09871 14.4917C9.09871 14.4917 8.50682 14.5844 8.27862 14.6058C8.05755 14.6201 6.68835 14.4561 6.68835 14.4561Z" fill="#622313"/>
<path opacity="0.3" d="M1.91052 14.6843C1.91052 14.6843 4.76301 14.7628 6.4745 14.7628C8.186 14.7628 10.4823 14.72 10.4823 14.72C10.4823 14.72 8.37141 14.8412 7.56558 14.8697C6.76688 14.8983 1.91052 14.6843 1.91052 14.6843Z" fill="#622313"/>
<path d="M1.80359 14.7842C1.80359 14.7842 4.65608 14.8626 6.36757 14.8626C8.07906 14.8626 10.3753 14.8198 10.3753 14.8198C10.3753 14.8198 8.26448 14.9411 7.45865 14.9696C6.65995 15.0052 1.80359 14.7842 1.80359 14.7842Z" fill="#FCA286"/>
<path opacity="0.3" d="M14.9749 15.4973C14.9749 15.4973 13.078 15.4188 11.9442 15.4188C10.8032 15.4188 9.2771 15.4545 9.2771 15.4545C9.2771 15.4545 10.682 15.3404 11.2168 15.3119C11.7516 15.2905 14.9749 15.4973 14.9749 15.4973Z" fill="#622313"/>
<path d="M2.48096 13.0086C2.48096 13.0086 3.51498 12.9729 4.57041 13.0585C5.62583 13.1441 6.56715 13.1013 6.56715 13.1013C6.56715 13.1013 4.01417 13.3224 2.48096 13.0086Z" fill="#FCA286"/>
<path d="M9.09875 13.7146C9.09875 13.7146 10.9386 13.7146 11.5733 13.7146C12.208 13.7146 13.734 13.8144 14.0835 13.8144C14.4329 13.8144 11.4164 14.2067 9.09875 13.7146Z" fill="#FCA286"/>
<path d="M16.7291 12.167H1.18305C0.990505 12.167 0.833618 12.3239 0.833618 12.5164V12.8445C0.833618 12.6519 0.990505 12.495 1.18305 12.495H16.7291C16.9217 12.495 17.0785 12.6519 17.0785 12.8445V12.5164C17.0785 12.3239 16.9217 12.167 16.7291 12.167Z" fill="#FCA286"/>
<defs>
<linearGradient id="paint0_linear_320_3266" x1="9.00867" y1="2.23674" x2="9.00867" y2="14.1851" gradientUnits="userSpaceOnUse">
<stop stop-color="#D1663D"/>
<stop offset="1" stop-color="#C2502F"/>
</linearGradient>
<linearGradient id="paint1_linear_320_3266" x1="9.61339" y1="13.1162" x2="8.71315" y2="3.37746" gradientUnits="userSpaceOnUse">
<stop stop-color="#7A5448"/>
<stop offset="0.996" stop-color="#D1663D"/>
</linearGradient>
<linearGradient id="paint2_linear_320_3266" x1="1.37101" y1="8.43126" x2="16.6647" y2="8.43126" gradientUnits="userSpaceOnUse">
<stop stop-color="#E5955A"/>
<stop offset="0.996" stop-color="#D1663D"/>
</linearGradient>
<linearGradient id="paint3_linear_320_3266" x1="8.58757" y1="18.7323" x2="9.52873" y2="8.99349" gradientUnits="userSpaceOnUse">
<stop stop-color="#7A5448"/>
<stop offset="0.996" stop-color="#D1663D"/>
</linearGradient>
<linearGradient id="paint4_linear_320_3266" x1="8.95646" y1="2.75847" x2="8.95646" y2="5.73808" gradientUnits="userSpaceOnUse">
<stop stop-color="#7A5448"/>
<stop offset="0.996" stop-color="#D1663D"/>
</linearGradient>
<linearGradient id="paint5_linear_320_3266" x1="8.95646" y1="1.53005" x2="8.95646" y2="6.42825" gradientUnits="userSpaceOnUse">
<stop stop-color="#E5955A"/>
<stop offset="0.996" stop-color="#D1663D"/>
</linearGradient>
<linearGradient id="paint6_linear_320_3266" x1="9.01787" y1="12.6707" x2="9.01787" y2="15.9034" gradientUnits="userSpaceOnUse">
<stop stop-color="#E5955A"/>
<stop offset="0.996" stop-color="#D1663D"/>
</linearGradient>
</defs>
</svg>
