<?xml version="1.0" encoding="UTF-8"?>
<!DOCTYPE svg PUBLIC "-//W3C//DTD SVG 1.1//EN" "http://www.w3.org/Graphics/SVG/1.1/DTD/svg11.dtd">
<svg xmlns="http://www.w3.org/2000/svg">

<symbol id="user" viewBox="0 0 29 29">
<path fill-rule="evenodd" clip-rule="evenodd" d="M0.75 19.2498V14.6664C0.800189 13.6668 1.40024 12.7773 2.30833 12.3564C6.59973 10.6325 11.3911 10.6325 15.6825 12.3564C16.5942 12.7747 17.1981 13.6647 17.25 14.6664V19.2498C17.25 20.7685 16.0188 21.9998 14.5 21.9998H3.5C1.98122 21.9998 0.75 20.7685 0.75 19.2498ZM9.00004 0C6.46874 0 4.41671 2.05203 4.41671 4.58333C4.41671 7.11464 6.46874 9.16667 9.00004 9.16667C11.5313 9.16667 13.5834 7.11464 13.5834 4.58333C13.5834 2.05203 11.5313 0 9.00004 0Z"/>
	</symbol>

	<symbol id="wallet" viewBox="0 0 29 29">
        <path fill-rule="evenodd" clip-rule="evenodd" d="M3.00606 -0.000488281H17.2274C18.7 -0.000488281 19.8938 1.19334 19.8938 2.666C19.8938 3.64778 19.098 4.44367 18.1162 4.44367H15.4497C13.977 4.44367 12.7832 5.63749 12.7832 7.11016V8.88782C12.7832 10.3605 13.977 11.5543 15.4497 11.5543H18.1162C19.098 11.5543 19.8938 12.3502 19.8938 13.332C19.8938 14.8046 18.7 15.9985 17.2274 15.9985H3.00606C1.5334 15.9985 0.339569 14.8046 0.339569 13.332V2.666C0.339569 1.19334 1.5334 -0.000488281 3.00606 -0.000488281ZM21.6715 7.10994V8.8876C21.6715 9.86937 20.8756 10.6653 19.8938 10.6653H15.4497C14.4679 10.6653 13.672 9.86937 13.672 8.8876V7.10994C13.672 6.12816 14.4679 5.33228 15.4497 5.33228H19.8938C20.8756 5.33228 21.6715 6.12816 21.6715 7.10994ZM20.7827 7.99894C20.7827 7.50805 20.3847 7.11011 19.8938 7.11011C19.4029 7.11011 19.005 7.50805 19.005 7.99894C19.005 8.48983 19.4029 8.88777 19.8938 8.88777C20.3847 8.88777 20.7827 8.48983 20.7827 7.99894Z"/>
	</symbol>

    <symbol id="shield" viewBox="0 0 29 29">
<path fill-rule="evenodd" clip-rule="evenodd" d="M11.442 22.4835L10.3067 21.568C6.17617 18.3555 3.76035 13.4157 3.76065 8.18296V5.76596C3.76016 5.04107 4.18735 4.38412 4.85013 4.09054L11.6342 1.07845C11.8703 0.973851 12.1397 0.973851 12.3758 1.07845L19.1599 4.09054C19.8227 4.38412 20.2498 5.04107 20.2494 5.76596V8.18296C20.2497 13.4157 17.8338 18.3555 13.7033 21.568L12.5681 22.4835C12.2371 22.7417 11.7729 22.7417 11.442 22.4835V22.4835Z"/>
	</symbol>

    

    <symbol id="arrow" viewBox="0 0 29 29">
<path fill-rule="evenodd" clip-rule="evenodd" d="M13.88 12.055L17.73 16.675C17.8844 16.8604 17.8844 17.1296 17.73 17.315L13.88 21.935C13.7445 22.0934 13.525 22.1512 13.3291 22.0799C13.1332 22.0087 13.0021 21.8234 13 21.615V18.495C13 18.2188 12.7761 17.995 12.5 17.995H1C0.447715 17.995 0 17.5473 0 16.995C0 16.4427 0.447715 15.995 1 15.995H12.5C12.7761 15.995 13 15.7711 13 15.495V12.375C13.0021 12.1665 13.1332 11.9812 13.3291 11.91C13.525 11.8388 13.7445 11.8965 13.88 12.055ZM4.11 0.175091L0.26 4.79509C0.105583 4.98048 0.105583 5.2497 0.26 5.43509L4.11 10.0551C4.24546 10.2135 4.465 10.2713 4.6609 10.2001C4.85679 10.1288 4.98794 9.94353 4.99 9.73509V6.61509C4.99 6.33895 5.21386 6.11509 5.49 6.11509H17C17.5523 6.11509 18 5.66738 18 5.11509C18 4.56281 17.5523 4.11509 17 4.11509H5.5C5.22386 4.11509 5 3.89123 5 3.61509V0.495091C4.99794 0.286654 4.86679 0.101362 4.6709 0.0301271C4.475 -0.0411081 4.25546 0.0166611 4.12 0.175091H4.11Z"/>
	</symbol>

    <symbol id="clock" viewBox="0 0 29 29">
<path fill-rule="evenodd" clip-rule="evenodd" d="M11 0C4.92487 0 0 4.92487 0 11C0 17.0751 4.92487 22 11 22C17.0751 22 22 17.0751 22 11C22 4.92487 17.0751 0 11 0ZM14.4008 14.3092C14.0433 14.6646 13.4659 14.6646 13.1083 14.3092L10.0833 11.2842V5.40837C10.0833 4.9021 10.4937 4.4917 11 4.4917C11.5063 4.4917 11.9167 4.9021 11.9167 5.40837V10.5325L14.4008 13.0167C14.7563 13.3742 14.7563 13.9517 14.4008 14.3092Z"/>
	</symbol>

    <symbol id="game" viewBox="0 0 29 29">
<path fill-rule="evenodd" clip-rule="evenodd" d="M23.0522 12.7495L21.6802 4.52697C21.4351 3.06022 20.5982 1.75857 19.3654 0.926902C18.1326 0.0952358 16.6123 -0.19339 15.1605 0.128627L14.0901 0.362167C12.6994 0.671328 11.2577 0.671328 9.86692 0.362167L8.79653 0.128627C7.34473 -0.19339 5.82439 0.0952358 4.59161 0.926902C3.35883 1.75857 2.5219 3.06022 2.27686 4.52697L0.904808 12.7495C0.753129 13.6614 1.01054 14.5938 1.60856 15.2987C2.20658 16.0035 3.08457 16.4094 4.00895 16.4083H4.20357C5.55014 16.4092 6.74764 15.5521 7.18121 14.2773C7.7405 12.6379 9.28301 11.5378 11.0152 11.5429H12.7959C14.6846 11.5451 16.3795 12.7033 17.0678 14.4622C17.6562 15.9644 19.2865 16.7772 20.8403 16.3429C22.3942 15.9086 23.3669 14.3684 23.0911 12.7787L23.0522 12.7495ZM15.2677 4.04044C15.5455 3.76094 15.9645 3.67662 16.3288 3.8269C16.6931 3.97717 16.9309 4.33236 16.9309 4.72646C16.9309 5.12057 16.6931 5.47576 16.3288 5.62603C15.9645 5.77631 15.5455 5.69199 15.2677 5.41249C14.9009 5.02233 14.9183 4.40918 15.3066 4.04044H15.2677ZM14.5767 7.24215C14.2989 7.52165 13.8799 7.60596 13.5156 7.45569C13.1512 7.30541 12.9135 6.95023 12.9135 6.55612C12.9135 6.16202 13.1512 5.80683 13.5156 5.65656C13.8799 5.50628 14.2989 5.5906 14.5767 5.8701C14.7675 6.04624 14.88 6.29133 14.8891 6.55084C14.8983 6.81035 14.8033 7.06275 14.6254 7.25188L14.5767 7.24215ZM16.6396 9.30465C16.3617 9.58415 15.9427 9.66846 15.5784 9.51819C15.2141 9.36791 14.9763 9.01272 14.9763 8.61862C14.9763 8.22452 15.2141 7.86933 15.5784 7.71906C15.9427 7.56878 16.3617 7.6531 16.6396 7.9326C16.8304 8.10874 16.9428 8.35383 16.952 8.61334C16.9611 8.87285 16.8661 9.12525 16.6882 9.31438L16.6396 9.30465ZM18.469 7.24215C18.1912 7.52165 17.7722 7.60596 17.4079 7.45569C17.0435 7.30541 16.8058 6.95023 16.8058 6.55612C16.8058 6.16202 17.0435 5.80683 17.4079 5.65656C17.7722 5.50628 18.1912 5.5906 18.469 5.8701C18.6598 6.04624 18.7723 6.29133 18.7814 6.55084C18.7906 6.81035 18.6956 7.06275 18.5177 7.25188L18.469 7.24215Z"/>
	</symbol>

    

</svg>

