<?xml version="1.0" encoding="UTF-8"?>
<!DOCTYPE svg PUBLIC "-//W3C//DTD SVG 1.1//EN" "http://www.w3.org/Graphics/SVG/1.1/DTD/svg11.dtd">
<svg xmlns="http://www.w3.org/2000/svg">

	<symbol id="top" viewBox="0 0 29 29">
        <path fill-rule="evenodd" clip-rule="evenodd" d="M25.3258 26.0326H8.67758C7.34423 26.0326 6.21806 25.0467 6.03745 23.7261L4.26851 10.4288C4.07196 8.94773 5.8409 8.03458 6.94051 9.05132L9.91531 11.8057C10.5846 12.424 11.6364 12.3613 12.2208 11.6676L15.7799 7.47308C16.4227 6.72089 17.586 6.72089 18.2235 7.47308L21.7826 11.6676C22.3723 12.3613 23.4188 12.424 24.0881 11.8057L27.0629 9.05132C28.1625 8.03458 29.9315 8.94773 29.7349 10.4288L27.966 23.7261C27.7907 25.0467 26.6592 26.0326 25.3258 26.0326Z" />
	</symbol>

    <symbol id="seasonpass" viewBox="0 0 29 29">
        <path fill-rule="evenodd" clip-rule="evenodd" d="M21.2289 10.7148L9.18876 17.6662C8.74728 17.9211 8.17754 17.7684 7.92265 17.327C7.66777 16.8855 7.82043 16.3157 8.2619 16.0609L20.3021 9.10946C20.7436 8.85458 21.3133 9.00724 21.5682 9.44871C21.8231 9.89019 21.6704 10.4599 21.2289 10.7148ZM23.3144 14.3269L11.2742 21.2783C10.8327 21.5332 10.263 21.3805 10.0081 20.939C9.75321 20.4975 9.90587 19.9278 10.3473 19.6729L22.3875 12.7215C22.829 12.4666 23.3987 12.6193 23.6536 13.0608C23.9085 13.5022 23.7558 14.072 23.3144 14.3269ZM25.3998 17.9389L23.3931 19.0975C22.9516 19.3524 22.3819 19.1997 22.127 18.7582C21.8721 18.3168 22.0247 17.747 22.4662 17.4921L24.4729 16.3336C24.9144 16.0787 25.4841 16.2313 25.739 16.6728C25.9939 17.1143 25.8412 17.684 25.3998 17.9389ZM20.2854 5.37324L5.03453 14.1783C3.92683 14.8179 3.54687 16.2359 4.1864 17.3436L10.2109 27.7784C10.8505 28.8861 12.2685 29.2661 13.3762 28.6266L28.6271 19.8215C29.7348 19.1819 30.1148 17.7639 29.4752 16.6562L23.4507 6.22137C22.8112 5.11367 21.3931 4.73371 20.2854 5.37324Z" />
	</symbol>

    <symbol id="progress" viewBox="0 0 29 29">
        <path fill-rule="evenodd" clip-rule="evenodd" d="M21.2289 10.7148L9.18876 17.6662C8.74728 17.9211 8.17754 17.7684 7.92265 17.327C7.66777 16.8855 7.82043 16.3157 8.2619 16.0609L20.3021 9.10946C20.7436 8.85458 21.3133 9.00724 21.5682 9.44871C21.8231 9.89019 21.6704 10.4599 21.2289 10.7148ZM23.3144 14.3269L11.2742 21.2783C10.8327 21.5332 10.263 21.3805 10.0081 20.939C9.75321 20.4975 9.90587 19.9278 10.3473 19.6729L22.3875 12.7215C22.829 12.4666 23.3987 12.6193 23.6536 13.0608C23.9085 13.5022 23.7558 14.072 23.3144 14.3269ZM25.3998 17.9389L23.3931 19.0975C22.9516 19.3524 22.3819 19.1997 22.127 18.7582C21.8721 18.3168 22.0247 17.747 22.4662 17.4921L24.4729 16.3336C24.9144 16.0787 25.4841 16.2313 25.739 16.6728C25.9939 17.1143 25.8412 17.684 25.3998 17.9389ZM20.2854 5.37324L5.03453 14.1783C3.92683 14.8179 3.54687 16.2359 4.1864 17.3436L10.2109 27.7784C10.8505 28.8861 12.2685 29.2661 13.3762 28.6266L28.6271 19.8215C29.7348 19.1819 30.1148 17.7639 29.4752 16.6562L23.4507 6.22137C22.8112 5.11367 21.3931 4.73371 20.2854 5.37324Z" />
	</symbol>

    <symbol id="market" viewBox="0 0 30 30">
        <path fill-rule="evenodd" clip-rule="evenodd" d="M10.2854 8.67715L9.9692 7.115C9.67195 5.45798 8.23629 4.25 6.54765 4.25H3.79649C2.97431 4.25 2.21537 4.8445 2.13315 5.66669C2.03828 6.61536 2.78457 7.41225 3.70795 7.41225H6.54765C6.69943 7.41225 6.83225 7.51976 6.86387 7.7095L9.57708 21.1238C9.8933 22.6859 11.3163 23.7674 12.9101 23.6536L24.6989 22.7808C26.1852 22.6733 27.3995 21.5348 27.6019 20.0549L28.6581 12.2695C28.9174 10.3658 27.4438 8.67715 25.5275 8.67715H10.2854Z" />
        <path fill-rule="evenodd" clip-rule="evenodd" d="M14.1433 28.283C14.1433 29.6807 13.0113 30.8128 11.6135 30.8128C10.2158 30.8128 9.08374 29.6807 9.08374 28.283C9.08374 26.8853 10.2158 25.7532 11.6135 25.7532C13.0113 25.7532 14.1433 26.8853 14.1433 28.283Z" />
        <path fill-rule="evenodd" clip-rule="evenodd" d="M25.5274 28.283C25.5274 29.6807 24.3953 30.8128 22.9976 30.8128C21.5999 30.8128 20.4678 29.6807 20.4678 28.283C20.4678 26.8853 21.5999 25.7532 22.9976 25.7532C24.3953 25.7532 25.5274 26.8853 25.5274 28.283Z" />
    </symbol>

    <symbol id="faq" viewBox="0 0 29 29">
        <path fill-rule="evenodd" clip-rule="evenodd" d="M18.534 18.1687C18.2662 18.2759 17.974 18.5291 17.974 18.909V19.4349C17.974 19.9706 17.5357 20.4089 17 20.4089C16.4643 20.4089 16.0261 19.9706 16.0261 19.4349V18.909C16.0261 17.7938 16.7273 16.7906 17.8133 16.3572C18.6606 16.0163 19.206 15.2079 19.1914 14.2875C19.1768 13.1334 18.1882 12.1448 17.0292 12.1302C16.4449 12.1156 15.88 12.3445 15.4612 12.7633C15.0424 13.1772 14.8086 13.7324 14.8086 14.3216C14.8086 14.8573 14.3703 15.2956 13.8347 15.2956C13.299 15.2956 12.8607 14.8573 12.8607 14.3216C12.8607 13.2064 13.299 12.1594 14.0927 11.3754C14.8719 10.606 15.9043 10.1823 17 10.1823H17.0585C19.2791 10.2115 21.1101 12.0426 21.1393 14.2632C21.1637 15.9676 20.1167 17.5357 18.534 18.1687ZM17 23.8177C16.4643 23.8177 16.026 23.3794 16.026 22.8437C16.026 22.3081 16.4643 21.8698 17 21.8698C17.5356 21.8698 17.9739 22.3081 17.9739 22.8437C17.9739 23.3794 17.5356 23.8177 17 23.8177ZM17 5.3125C10.5475 5.3125 5.3125 10.5475 5.3125 17C5.3125 23.4525 10.5475 28.6875 17 28.6875C23.4525 28.6875 28.6875 23.4525 28.6875 17C28.6875 10.5475 23.4525 5.3125 17 5.3125Z"  />
	</symbol>

    <symbol id="loot" viewBox="0 0 29 29">
        <path fill-rule="evenodd" clip-rule="evenodd" d="M14.4702 15.9881H7.89286C7.05298 15.9881 6.375 15.3086 6.375 14.4702V8.90476C6.375 7.50783 7.50833 6.375 8.90476 6.375H14.4702C15.3101 6.375 15.9881 7.05449 15.9881 7.89286V14.4702C15.9881 15.3086 15.3101 15.9881 14.4702 15.9881Z"  />
        <path fill-rule="evenodd" clip-rule="evenodd" d="M26.1072 15.9881H19.5298C18.6899 15.9881 18.012 15.3086 18.012 14.4702V7.89286C18.012 7.05449 18.6899 6.375 19.5298 6.375H25.0953C26.4917 6.375 27.6251 7.50783 27.6251 8.90476V14.4702C27.6251 15.3086 26.9471 15.9881 26.1072 15.9881Z"  />
        <path fill-rule="evenodd" clip-rule="evenodd" d="M14.4702 27.6248H8.90476C7.50833 27.6248 6.375 26.492 6.375 25.095V19.5296C6.375 18.6912 7.05298 18.0117 7.89286 18.0117H14.4702C15.3101 18.0117 15.9881 18.6912 15.9881 19.5296V26.107C15.9881 26.9453 15.3101 27.6248 14.4702 27.6248Z"  />
        <path fill-rule="evenodd" clip-rule="evenodd" d="M25.0953 27.6248H19.5298C18.6899 27.6248 18.012 26.9453 18.012 26.107V19.5296C18.012 18.6912 18.6899 18.0117 19.5298 18.0117H26.1072C26.9471 18.0117 27.6251 18.6912 27.6251 19.5296V25.095C27.6251 26.492 26.4917 27.6248 25.0953 27.6248Z"  />
	</symbol>

    <symbol id="garage" viewBox="0 0 26 26">
       <path fill-rule="evenodd" clip-rule="evenodd" d="M10.8072 17.8521C9.69577 17.8521 8.79555 16.9519 8.79555 15.8404C8.79555 14.729 9.69577 13.8288 10.8072 13.8288C11.9187 13.8288 12.8189 14.729 12.8189 15.8404C12.8189 16.9519 11.9187 17.8521 10.8072 17.8521ZM20.6744 9.14156L11.8533 0.67245C11.2699 0.109183 10.3445 0.109183 9.76116 0.67245L0.940002 9.14156C-0.0406854 10.082 0.623164 11.7366 1.98607 11.7366H2.76056V21.8754C2.76056 23.2635 3.88709 24.39 5.27514 24.39H16.3393C17.7274 24.39 18.8539 23.2635 18.8539 21.8754V11.7366H19.6284C20.9913 11.7366 21.6551 10.082 20.6744 9.14156Z"  />
	</symbol>

    <symbol id="profile" viewBox="0 0 24 24">
        <path fill-rule="evenodd" clip-rule="evenodd" d="M12.9149 1.6112L15.8076 7.71718L21.7308 8.34652C23.0673 8.48888 23.5722 10.17 22.5353 11.0247L17.8175 14.9139L19.28 21.4444C19.5719 22.7491 18.155 23.7661 17.0125 23.0717L11.5446 19.7484L6.07666 23.0717C4.93371 23.7661 3.51731 22.7491 3.80919 21.4444L5.27117 14.9139L0.553422 11.0247C-0.483018 10.17 0.021888 8.48888 1.35789 8.34652L7.28157 7.71718L10.1743 1.6112C10.7217 0.455447 12.367 0.455447 12.9149 1.6112Z" />
    </symbol>


</svg>

