<svg width="18" height="22" viewBox="0 0 18 22" fill="none" xmlns="http://www.w3.org/2000/svg">
<path fill-rule="evenodd" clip-rule="evenodd" d="M0.75 19.2498V14.6664C0.800189 13.6668 1.40024 12.7773 2.30833 12.3564C6.59973 10.6325 11.3911 10.6325 15.6825 12.3564C16.5942 12.7747 17.1981 13.6647 17.25 14.6664V19.2498C17.25 20.7685 16.0188 21.9998 14.5 21.9998H3.5C1.98122 21.9998 0.75 20.7685 0.75 19.2498ZM9.00004 0C6.46874 0 4.41671 2.05203 4.41671 4.58333C4.41671 7.11464 6.46874 9.16667 9.00004 9.16667C11.5313 9.16667 13.5834 7.11464 13.5834 4.58333C13.5834 2.05203 11.5313 0 9.00004 0Z" fill="#616D7A"/>
</svg>
